<?xml version="1.0" encoding="utf-8" standalone="no"?>
<!DOCTYPE svg PUBLIC "-//W3C//DTD SVG 1.1//EN"
  "http://www.w3.org/Graphics/SVG/1.1/DTD/svg11.dtd">
<svg xmlns:xlink="http://www.w3.org/1999/xlink" width="360pt" height="504pt" viewBox="0 0 360 504" xmlns="http://www.w3.org/2000/svg" version="1.1">
 <metadata>
  <rdf:RDF xmlns:dc="http://purl.org/dc/elements/1.1/" xmlns:cc="http://creativecommons.org/ns#" xmlns:rdf="http://www.w3.org/1999/02/22-rdf-syntax-ns#">
   <cc:Work>
    <dc:type rdf:resource="http://purl.org/dc/dcmitype/StillImage"/>
    <dc:date>2024-02-19T04:57:36.504638</dc:date>
    <dc:format>image/svg+xml</dc:format>
    <dc:creator>
     <cc:Agent>
      <dc:title>Matplotlib v3.7.5, https://matplotlib.org/</dc:title>
     </cc:Agent>
    </dc:creator>
   </cc:Work>
  </rdf:RDF>
 </metadata>
 <defs>
  <style type="text/css">*{stroke-linejoin: round; stroke-linecap: butt}</style>
 </defs>
 <g id="figure_1">
  <g id="patch_1">
   <path d="M 0 504 
L 360 504 
L 360 0 
L 0 0 
z
" style="fill: #ffffff"/>
  </g>
  <g id="axes_1">
   <g id="patch_2">
    <path d="M 74.918 447.352 
L 329.472 447.352 
L 329.472 10.8 
L 74.918 10.8 
z
" style="fill: #ffffff"/>
   </g>
   <g id="matplotlib.axis_1">
    <g id="xtick_1">
     <g id="line2d_1">
      <defs>
       <path id="ma7c52ab1e4" d="M 0 0 
L 0 3.5 
" style="stroke: #000000; stroke-width: 0.8"/>
      </defs>
      <g>
       <use xlink:href="#ma7c52ab1e4" x="74.918" y="447.352" style="stroke: #000000; stroke-width: 0.8"/>
      </g>
     </g>
     <g id="text_1">
      <!-- 0.0π -->
      <g transform="translate(55.186906 468.029188) scale(0.18 -0.18)">
       <defs>
        <path id="DejaVuSans-30" d="M 2034 4250 
Q 1547 4250 1301 3770 
Q 1056 3291 1056 2328 
Q 1056 1369 1301 889 
Q 1547 409 2034 409 
Q 2525 409 2770 889 
Q 3016 1369 3016 2328 
Q 3016 3291 2770 3770 
Q 2525 4250 2034 4250 
z
M 2034 4750 
Q 2819 4750 3233 4129 
Q 3647 3509 3647 2328 
Q 3647 1150 3233 529 
Q 2819 -91 2034 -91 
Q 1250 -91 836 529 
Q 422 1150 422 2328 
Q 422 3509 836 4129 
Q 1250 4750 2034 4750 
z
" transform="scale(0.015625)"/>
        <path id="DejaVuSans-2e" d="M 684 794 
L 1344 794 
L 1344 0 
L 684 0 
L 684 794 
z
" transform="scale(0.015625)"/>
        <path id="DejaVuSans-3c0" d="M 231 3500 
L 3584 3500 
L 3584 2925 
L 3144 2925 
L 3144 775 
Q 3144 550 3220 451 
Q 3297 353 3469 353 
Q 3516 353 3584 361 
Q 3653 369 3675 372 
L 3675 -44 
Q 3566 -84 3450 -103 
Q 3334 -122 3219 -122 
Q 2844 -122 2700 83 
Q 2556 288 2556 838 
L 2556 2925 
L 1266 2925 
L 1266 0 
L 678 0 
L 678 2925 
L 231 2925 
L 231 3500 
z
" transform="scale(0.015625)"/>
       </defs>
       <use xlink:href="#DejaVuSans-30"/>
       <use xlink:href="#DejaVuSans-2e" x="63.623047"/>
       <use xlink:href="#DejaVuSans-30" x="95.410156"/>
       <use xlink:href="#DejaVuSans-3c0" x="159.033203"/>
      </g>
     </g>
    </g>
    <g id="xtick_2">
     <g id="line2d_2">
      <g>
       <use xlink:href="#ma7c52ab1e4" x="138.5565" y="447.352" style="stroke: #000000; stroke-width: 0.8"/>
      </g>
     </g>
     <g id="text_2">
      <!-- 0.2π -->
      <g transform="translate(118.825406 468.029188) scale(0.18 -0.18)">
       <defs>
        <path id="DejaVuSans-32" d="M 1228 531 
L 3431 531 
L 3431 0 
L 469 0 
L 469 531 
Q 828 903 1448 1529 
Q 2069 2156 2228 2338 
Q 2531 2678 2651 2914 
Q 2772 3150 2772 3378 
Q 2772 3750 2511 3984 
Q 2250 4219 1831 4219 
Q 1534 4219 1204 4116 
Q 875 4013 500 3803 
L 500 4441 
Q 881 4594 1212 4672 
Q 1544 4750 1819 4750 
Q 2544 4750 2975 4387 
Q 3406 4025 3406 3419 
Q 3406 3131 3298 2873 
Q 3191 2616 2906 2266 
Q 2828 2175 2409 1742 
Q 1991 1309 1228 531 
z
" transform="scale(0.015625)"/>
       </defs>
       <use xlink:href="#DejaVuSans-30"/>
       <use xlink:href="#DejaVuSans-2e" x="63.623047"/>
       <use xlink:href="#DejaVuSans-32" x="95.410156"/>
       <use xlink:href="#DejaVuSans-3c0" x="159.033203"/>
      </g>
     </g>
    </g>
    <g id="xtick_3">
     <g id="line2d_3">
      <g>
       <use xlink:href="#ma7c52ab1e4" x="202.195" y="447.352" style="stroke: #000000; stroke-width: 0.8"/>
      </g>
     </g>
     <g id="text_3">
      <!-- 0.5π -->
      <g transform="translate(182.463906 468.029188) scale(0.18 -0.18)">
       <defs>
        <path id="DejaVuSans-35" d="M 691 4666 
L 3169 4666 
L 3169 4134 
L 1269 4134 
L 1269 2991 
Q 1406 3038 1543 3061 
Q 1681 3084 1819 3084 
Q 2600 3084 3056 2656 
Q 3513 2228 3513 1497 
Q 3513 744 3044 326 
Q 2575 -91 1722 -91 
Q 1428 -91 1123 -41 
Q 819 9 494 109 
L 494 744 
Q 775 591 1075 516 
Q 1375 441 1709 441 
Q 2250 441 2565 725 
Q 2881 1009 2881 1497 
Q 2881 1984 2565 2268 
Q 2250 2553 1709 2553 
Q 1456 2553 1204 2497 
Q 953 2441 691 2322 
L 691 4666 
z
" transform="scale(0.015625)"/>
       </defs>
       <use xlink:href="#DejaVuSans-30"/>
       <use xlink:href="#DejaVuSans-2e" x="63.623047"/>
       <use xlink:href="#DejaVuSans-35" x="95.410156"/>
       <use xlink:href="#DejaVuSans-3c0" x="159.033203"/>
      </g>
     </g>
    </g>
    <g id="xtick_4">
     <g id="line2d_4">
      <g>
       <use xlink:href="#ma7c52ab1e4" x="265.8335" y="447.352" style="stroke: #000000; stroke-width: 0.8"/>
      </g>
     </g>
     <g id="text_4">
      <!-- 0.8π -->
      <g transform="translate(246.102406 468.029188) scale(0.18 -0.18)">
       <defs>
        <path id="DejaVuSans-38" d="M 2034 2216 
Q 1584 2216 1326 1975 
Q 1069 1734 1069 1313 
Q 1069 891 1326 650 
Q 1584 409 2034 409 
Q 2484 409 2743 651 
Q 3003 894 3003 1313 
Q 3003 1734 2745 1975 
Q 2488 2216 2034 2216 
z
M 1403 2484 
Q 997 2584 770 2862 
Q 544 3141 544 3541 
Q 544 4100 942 4425 
Q 1341 4750 2034 4750 
Q 2731 4750 3128 4425 
Q 3525 4100 3525 3541 
Q 3525 3141 3298 2862 
Q 3072 2584 2669 2484 
Q 3125 2378 3379 2068 
Q 3634 1759 3634 1313 
Q 3634 634 3220 271 
Q 2806 -91 2034 -91 
Q 1263 -91 848 271 
Q 434 634 434 1313 
Q 434 1759 690 2068 
Q 947 2378 1403 2484 
z
M 1172 3481 
Q 1172 3119 1398 2916 
Q 1625 2713 2034 2713 
Q 2441 2713 2670 2916 
Q 2900 3119 2900 3481 
Q 2900 3844 2670 4047 
Q 2441 4250 2034 4250 
Q 1625 4250 1398 4047 
Q 1172 3844 1172 3481 
z
" transform="scale(0.015625)"/>
       </defs>
       <use xlink:href="#DejaVuSans-30"/>
       <use xlink:href="#DejaVuSans-2e" x="63.623047"/>
       <use xlink:href="#DejaVuSans-38" x="95.410156"/>
       <use xlink:href="#DejaVuSans-3c0" x="159.033203"/>
      </g>
     </g>
    </g>
    <g id="xtick_5">
     <g id="line2d_5">
      <g>
       <use xlink:href="#ma7c52ab1e4" x="329.472" y="447.352" style="stroke: #000000; stroke-width: 0.8"/>
      </g>
     </g>
     <g id="text_5">
      <!-- 1.0π -->
      <g transform="translate(309.740906 468.029188) scale(0.18 -0.18)">
       <defs>
        <path id="DejaVuSans-31" d="M 794 531 
L 1825 531 
L 1825 4091 
L 703 3866 
L 703 4441 
L 1819 4666 
L 2450 4666 
L 2450 531 
L 3481 531 
L 3481 0 
L 794 0 
L 794 531 
z
" transform="scale(0.015625)"/>
       </defs>
       <use xlink:href="#DejaVuSans-31"/>
       <use xlink:href="#DejaVuSans-2e" x="63.623047"/>
       <use xlink:href="#DejaVuSans-30" x="95.410156"/>
       <use xlink:href="#DejaVuSans-3c0" x="159.033203"/>
      </g>
     </g>
    </g>
    <g id="text_6">
     <!-- Frequency -->
     <g transform="translate(155.701562 489.449813) scale(0.18 -0.18)">
      <defs>
       <path id="DejaVuSans-46" d="M 628 4666 
L 3309 4666 
L 3309 4134 
L 1259 4134 
L 1259 2759 
L 3109 2759 
L 3109 2228 
L 1259 2228 
L 1259 0 
L 628 0 
L 628 4666 
z
" transform="scale(0.015625)"/>
       <path id="DejaVuSans-72" d="M 2631 2963 
Q 2534 3019 2420 3045 
Q 2306 3072 2169 3072 
Q 1681 3072 1420 2755 
Q 1159 2438 1159 1844 
L 1159 0 
L 581 0 
L 581 3500 
L 1159 3500 
L 1159 2956 
Q 1341 3275 1631 3429 
Q 1922 3584 2338 3584 
Q 2397 3584 2469 3576 
Q 2541 3569 2628 3553 
L 2631 2963 
z
" transform="scale(0.015625)"/>
       <path id="DejaVuSans-65" d="M 3597 1894 
L 3597 1613 
L 953 1613 
Q 991 1019 1311 708 
Q 1631 397 2203 397 
Q 2534 397 2845 478 
Q 3156 559 3463 722 
L 3463 178 
Q 3153 47 2828 -22 
Q 2503 -91 2169 -91 
Q 1331 -91 842 396 
Q 353 884 353 1716 
Q 353 2575 817 3079 
Q 1281 3584 2069 3584 
Q 2775 3584 3186 3129 
Q 3597 2675 3597 1894 
z
M 3022 2063 
Q 3016 2534 2758 2815 
Q 2500 3097 2075 3097 
Q 1594 3097 1305 2825 
Q 1016 2553 972 2059 
L 3022 2063 
z
" transform="scale(0.015625)"/>
       <path id="DejaVuSans-71" d="M 947 1747 
Q 947 1113 1208 752 
Q 1469 391 1925 391 
Q 2381 391 2643 752 
Q 2906 1113 2906 1747 
Q 2906 2381 2643 2742 
Q 2381 3103 1925 3103 
Q 1469 3103 1208 2742 
Q 947 2381 947 1747 
z
M 2906 525 
Q 2725 213 2448 61 
Q 2172 -91 1784 -91 
Q 1150 -91 751 415 
Q 353 922 353 1747 
Q 353 2572 751 3078 
Q 1150 3584 1784 3584 
Q 2172 3584 2448 3432 
Q 2725 3281 2906 2969 
L 2906 3500 
L 3481 3500 
L 3481 -1331 
L 2906 -1331 
L 2906 525 
z
" transform="scale(0.015625)"/>
       <path id="DejaVuSans-75" d="M 544 1381 
L 544 3500 
L 1119 3500 
L 1119 1403 
Q 1119 906 1312 657 
Q 1506 409 1894 409 
Q 2359 409 2629 706 
Q 2900 1003 2900 1516 
L 2900 3500 
L 3475 3500 
L 3475 0 
L 2900 0 
L 2900 538 
Q 2691 219 2414 64 
Q 2138 -91 1772 -91 
Q 1169 -91 856 284 
Q 544 659 544 1381 
z
M 1991 3584 
L 1991 3584 
z
" transform="scale(0.015625)"/>
       <path id="DejaVuSans-6e" d="M 3513 2113 
L 3513 0 
L 2938 0 
L 2938 2094 
Q 2938 2591 2744 2837 
Q 2550 3084 2163 3084 
Q 1697 3084 1428 2787 
Q 1159 2491 1159 1978 
L 1159 0 
L 581 0 
L 581 3500 
L 1159 3500 
L 1159 2956 
Q 1366 3272 1645 3428 
Q 1925 3584 2291 3584 
Q 2894 3584 3203 3211 
Q 3513 2838 3513 2113 
z
" transform="scale(0.015625)"/>
       <path id="DejaVuSans-63" d="M 3122 3366 
L 3122 2828 
Q 2878 2963 2633 3030 
Q 2388 3097 2138 3097 
Q 1578 3097 1268 2742 
Q 959 2388 959 1747 
Q 959 1106 1268 751 
Q 1578 397 2138 397 
Q 2388 397 2633 464 
Q 2878 531 3122 666 
L 3122 134 
Q 2881 22 2623 -34 
Q 2366 -91 2075 -91 
Q 1284 -91 818 406 
Q 353 903 353 1747 
Q 353 2603 823 3093 
Q 1294 3584 2113 3584 
Q 2378 3584 2631 3529 
Q 2884 3475 3122 3366 
z
" transform="scale(0.015625)"/>
       <path id="DejaVuSans-79" d="M 2059 -325 
Q 1816 -950 1584 -1140 
Q 1353 -1331 966 -1331 
L 506 -1331 
L 506 -850 
L 844 -850 
Q 1081 -850 1212 -737 
Q 1344 -625 1503 -206 
L 1606 56 
L 191 3500 
L 800 3500 
L 1894 763 
L 2988 3500 
L 3597 3500 
L 2059 -325 
z
" transform="scale(0.015625)"/>
      </defs>
      <use xlink:href="#DejaVuSans-46"/>
      <use xlink:href="#DejaVuSans-72" x="50.269531"/>
      <use xlink:href="#DejaVuSans-65" x="89.132812"/>
      <use xlink:href="#DejaVuSans-71" x="150.65625"/>
      <use xlink:href="#DejaVuSans-75" x="214.132812"/>
      <use xlink:href="#DejaVuSans-65" x="277.511719"/>
      <use xlink:href="#DejaVuSans-6e" x="339.035156"/>
      <use xlink:href="#DejaVuSans-63" x="402.414062"/>
      <use xlink:href="#DejaVuSans-79" x="457.394531"/>
     </g>
    </g>
   </g>
   <g id="matplotlib.axis_2">
    <g id="ytick_1">
     <g id="line2d_6">
      <defs>
       <path id="m01b9f168b9" d="M 0 0 
L -3.5 0 
" style="stroke: #000000; stroke-width: 0.8"/>
      </defs>
      <g>
       <use xlink:href="#m01b9f168b9" x="74.918" y="439.155473" style="stroke: #000000; stroke-width: 0.8"/>
      </g>
     </g>
     <g id="text_7">
      <!-- -4.0 -->
      <g transform="translate(32.798313 445.994066) scale(0.18 -0.18)">
       <defs>
        <path id="DejaVuSans-2d" d="M 313 2009 
L 1997 2009 
L 1997 1497 
L 313 1497 
L 313 2009 
z
" transform="scale(0.015625)"/>
        <path id="DejaVuSans-34" d="M 2419 4116 
L 825 1625 
L 2419 1625 
L 2419 4116 
z
M 2253 4666 
L 3047 4666 
L 3047 1625 
L 3713 1625 
L 3713 1100 
L 3047 1100 
L 3047 0 
L 2419 0 
L 2419 1100 
L 313 1100 
L 313 1709 
L 2253 4666 
z
" transform="scale(0.015625)"/>
       </defs>
       <use xlink:href="#DejaVuSans-2d"/>
       <use xlink:href="#DejaVuSans-34" x="36.083984"/>
       <use xlink:href="#DejaVuSans-2e" x="99.707031"/>
       <use xlink:href="#DejaVuSans-30" x="131.494141"/>
      </g>
     </g>
    </g>
    <g id="ytick_2">
     <g id="line2d_7">
      <g>
       <use xlink:href="#m01b9f168b9" x="74.918" y="388.091448" style="stroke: #000000; stroke-width: 0.8"/>
      </g>
     </g>
     <g id="text_8">
      <!-- -3.5 -->
      <g transform="translate(32.798313 394.930041) scale(0.18 -0.18)">
       <defs>
        <path id="DejaVuSans-33" d="M 2597 2516 
Q 3050 2419 3304 2112 
Q 3559 1806 3559 1356 
Q 3559 666 3084 287 
Q 2609 -91 1734 -91 
Q 1441 -91 1130 -33 
Q 819 25 488 141 
L 488 750 
Q 750 597 1062 519 
Q 1375 441 1716 441 
Q 2309 441 2620 675 
Q 2931 909 2931 1356 
Q 2931 1769 2642 2001 
Q 2353 2234 1838 2234 
L 1294 2234 
L 1294 2753 
L 1863 2753 
Q 2328 2753 2575 2939 
Q 2822 3125 2822 3475 
Q 2822 3834 2567 4026 
Q 2313 4219 1838 4219 
Q 1578 4219 1281 4162 
Q 984 4106 628 3988 
L 628 4550 
Q 988 4650 1302 4700 
Q 1616 4750 1894 4750 
Q 2613 4750 3031 4423 
Q 3450 4097 3450 3541 
Q 3450 3153 3228 2886 
Q 3006 2619 2597 2516 
z
" transform="scale(0.015625)"/>
       </defs>
       <use xlink:href="#DejaVuSans-2d"/>
       <use xlink:href="#DejaVuSans-33" x="36.083984"/>
       <use xlink:href="#DejaVuSans-2e" x="99.707031"/>
       <use xlink:href="#DejaVuSans-35" x="131.494141"/>
      </g>
     </g>
    </g>
    <g id="ytick_3">
     <g id="line2d_8">
      <g>
       <use xlink:href="#m01b9f168b9" x="74.918" y="337.027423" style="stroke: #000000; stroke-width: 0.8"/>
      </g>
     </g>
     <g id="text_9">
      <!-- -3.0 -->
      <g transform="translate(32.798313 343.866016) scale(0.18 -0.18)">
       <use xlink:href="#DejaVuSans-2d"/>
       <use xlink:href="#DejaVuSans-33" x="36.083984"/>
       <use xlink:href="#DejaVuSans-2e" x="99.707031"/>
       <use xlink:href="#DejaVuSans-30" x="131.494141"/>
      </g>
     </g>
    </g>
    <g id="ytick_4">
     <g id="line2d_9">
      <g>
       <use xlink:href="#m01b9f168b9" x="74.918" y="285.963398" style="stroke: #000000; stroke-width: 0.8"/>
      </g>
     </g>
     <g id="text_10">
      <!-- -2.5 -->
      <g transform="translate(32.798313 292.801991) scale(0.18 -0.18)">
       <use xlink:href="#DejaVuSans-2d"/>
       <use xlink:href="#DejaVuSans-32" x="36.083984"/>
       <use xlink:href="#DejaVuSans-2e" x="99.707031"/>
       <use xlink:href="#DejaVuSans-35" x="131.494141"/>
      </g>
     </g>
    </g>
    <g id="ytick_5">
     <g id="line2d_10">
      <g>
       <use xlink:href="#m01b9f168b9" x="74.918" y="234.899373" style="stroke: #000000; stroke-width: 0.8"/>
      </g>
     </g>
     <g id="text_11">
      <!-- -2.0 -->
      <g transform="translate(32.798313 241.737966) scale(0.18 -0.18)">
       <use xlink:href="#DejaVuSans-2d"/>
       <use xlink:href="#DejaVuSans-32" x="36.083984"/>
       <use xlink:href="#DejaVuSans-2e" x="99.707031"/>
       <use xlink:href="#DejaVuSans-30" x="131.494141"/>
      </g>
     </g>
    </g>
    <g id="ytick_6">
     <g id="line2d_11">
      <g>
       <use xlink:href="#m01b9f168b9" x="74.918" y="183.835348" style="stroke: #000000; stroke-width: 0.8"/>
      </g>
     </g>
     <g id="text_12">
      <!-- -1.5 -->
      <g transform="translate(32.798313 190.673941) scale(0.18 -0.18)">
       <use xlink:href="#DejaVuSans-2d"/>
       <use xlink:href="#DejaVuSans-31" x="36.083984"/>
       <use xlink:href="#DejaVuSans-2e" x="99.707031"/>
       <use xlink:href="#DejaVuSans-35" x="131.494141"/>
      </g>
     </g>
    </g>
    <g id="ytick_7">
     <g id="line2d_12">
      <g>
       <use xlink:href="#m01b9f168b9" x="74.918" y="132.771323" style="stroke: #000000; stroke-width: 0.8"/>
      </g>
     </g>
     <g id="text_13">
      <!-- -1.0 -->
      <g transform="translate(32.798313 139.609916) scale(0.18 -0.18)">
       <use xlink:href="#DejaVuSans-2d"/>
       <use xlink:href="#DejaVuSans-31" x="36.083984"/>
       <use xlink:href="#DejaVuSans-2e" x="99.707031"/>
       <use xlink:href="#DejaVuSans-30" x="131.494141"/>
      </g>
     </g>
    </g>
    <g id="ytick_8">
     <g id="line2d_13">
      <g>
       <use xlink:href="#m01b9f168b9" x="74.918" y="81.707298" style="stroke: #000000; stroke-width: 0.8"/>
      </g>
     </g>
     <g id="text_14">
      <!-- -0.5 -->
      <g transform="translate(32.798313 88.545891) scale(0.18 -0.18)">
       <use xlink:href="#DejaVuSans-2d"/>
       <use xlink:href="#DejaVuSans-30" x="36.083984"/>
       <use xlink:href="#DejaVuSans-2e" x="99.707031"/>
       <use xlink:href="#DejaVuSans-35" x="131.494141"/>
      </g>
     </g>
    </g>
    <g id="ytick_9">
     <g id="line2d_14">
      <g>
       <use xlink:href="#m01b9f168b9" x="74.918" y="30.643273" style="stroke: #000000; stroke-width: 0.8"/>
      </g>
     </g>
     <g id="text_15">
      <!-- 0.0 -->
      <g transform="translate(39.292375 37.481866) scale(0.18 -0.18)">
       <use xlink:href="#DejaVuSans-30"/>
       <use xlink:href="#DejaVuSans-2e" x="63.623047"/>
       <use xlink:href="#DejaVuSans-30" x="95.410156"/>
      </g>
     </g>
    </g>
    <g id="text_16">
     <!-- $\Delta$ Log amplitude -->
     <g transform="translate(25.018313 302.696) rotate(-90) scale(0.18 -0.18)">
      <defs>
       <path id="DejaVuSans-394" d="M 2188 4044 
L 906 525 
L 3472 525 
L 2188 4044 
z
M 50 0 
L 1831 4666 
L 2547 4666 
L 4325 0 
L 50 0 
z
" transform="scale(0.015625)"/>
       <path id="DejaVuSans-20" transform="scale(0.015625)"/>
       <path id="DejaVuSans-4c" d="M 628 4666 
L 1259 4666 
L 1259 531 
L 3531 531 
L 3531 0 
L 628 0 
L 628 4666 
z
" transform="scale(0.015625)"/>
       <path id="DejaVuSans-6f" d="M 1959 3097 
Q 1497 3097 1228 2736 
Q 959 2375 959 1747 
Q 959 1119 1226 758 
Q 1494 397 1959 397 
Q 2419 397 2687 759 
Q 2956 1122 2956 1747 
Q 2956 2369 2687 2733 
Q 2419 3097 1959 3097 
z
M 1959 3584 
Q 2709 3584 3137 3096 
Q 3566 2609 3566 1747 
Q 3566 888 3137 398 
Q 2709 -91 1959 -91 
Q 1206 -91 779 398 
Q 353 888 353 1747 
Q 353 2609 779 3096 
Q 1206 3584 1959 3584 
z
" transform="scale(0.015625)"/>
       <path id="DejaVuSans-67" d="M 2906 1791 
Q 2906 2416 2648 2759 
Q 2391 3103 1925 3103 
Q 1463 3103 1205 2759 
Q 947 2416 947 1791 
Q 947 1169 1205 825 
Q 1463 481 1925 481 
Q 2391 481 2648 825 
Q 2906 1169 2906 1791 
z
M 3481 434 
Q 3481 -459 3084 -895 
Q 2688 -1331 1869 -1331 
Q 1566 -1331 1297 -1286 
Q 1028 -1241 775 -1147 
L 775 -588 
Q 1028 -725 1275 -790 
Q 1522 -856 1778 -856 
Q 2344 -856 2625 -561 
Q 2906 -266 2906 331 
L 2906 616 
Q 2728 306 2450 153 
Q 2172 0 1784 0 
Q 1141 0 747 490 
Q 353 981 353 1791 
Q 353 2603 747 3093 
Q 1141 3584 1784 3584 
Q 2172 3584 2450 3431 
Q 2728 3278 2906 2969 
L 2906 3500 
L 3481 3500 
L 3481 434 
z
" transform="scale(0.015625)"/>
       <path id="DejaVuSans-61" d="M 2194 1759 
Q 1497 1759 1228 1600 
Q 959 1441 959 1056 
Q 959 750 1161 570 
Q 1363 391 1709 391 
Q 2188 391 2477 730 
Q 2766 1069 2766 1631 
L 2766 1759 
L 2194 1759 
z
M 3341 1997 
L 3341 0 
L 2766 0 
L 2766 531 
Q 2569 213 2275 61 
Q 1981 -91 1556 -91 
Q 1019 -91 701 211 
Q 384 513 384 1019 
Q 384 1609 779 1909 
Q 1175 2209 1959 2209 
L 2766 2209 
L 2766 2266 
Q 2766 2663 2505 2880 
Q 2244 3097 1772 3097 
Q 1472 3097 1187 3025 
Q 903 2953 641 2809 
L 641 3341 
Q 956 3463 1253 3523 
Q 1550 3584 1831 3584 
Q 2591 3584 2966 3190 
Q 3341 2797 3341 1997 
z
" transform="scale(0.015625)"/>
       <path id="DejaVuSans-6d" d="M 3328 2828 
Q 3544 3216 3844 3400 
Q 4144 3584 4550 3584 
Q 5097 3584 5394 3201 
Q 5691 2819 5691 2113 
L 5691 0 
L 5113 0 
L 5113 2094 
Q 5113 2597 4934 2840 
Q 4756 3084 4391 3084 
Q 3944 3084 3684 2787 
Q 3425 2491 3425 1978 
L 3425 0 
L 2847 0 
L 2847 2094 
Q 2847 2600 2669 2842 
Q 2491 3084 2119 3084 
Q 1678 3084 1418 2786 
Q 1159 2488 1159 1978 
L 1159 0 
L 581 0 
L 581 3500 
L 1159 3500 
L 1159 2956 
Q 1356 3278 1631 3431 
Q 1906 3584 2284 3584 
Q 2666 3584 2933 3390 
Q 3200 3197 3328 2828 
z
" transform="scale(0.015625)"/>
       <path id="DejaVuSans-70" d="M 1159 525 
L 1159 -1331 
L 581 -1331 
L 581 3500 
L 1159 3500 
L 1159 2969 
Q 1341 3281 1617 3432 
Q 1894 3584 2278 3584 
Q 2916 3584 3314 3078 
Q 3713 2572 3713 1747 
Q 3713 922 3314 415 
Q 2916 -91 2278 -91 
Q 1894 -91 1617 61 
Q 1341 213 1159 525 
z
M 3116 1747 
Q 3116 2381 2855 2742 
Q 2594 3103 2138 3103 
Q 1681 3103 1420 2742 
Q 1159 2381 1159 1747 
Q 1159 1113 1420 752 
Q 1681 391 2138 391 
Q 2594 391 2855 752 
Q 3116 1113 3116 1747 
z
" transform="scale(0.015625)"/>
       <path id="DejaVuSans-6c" d="M 603 4863 
L 1178 4863 
L 1178 0 
L 603 0 
L 603 4863 
z
" transform="scale(0.015625)"/>
       <path id="DejaVuSans-69" d="M 603 3500 
L 1178 3500 
L 1178 0 
L 603 0 
L 603 3500 
z
M 603 4863 
L 1178 4863 
L 1178 4134 
L 603 4134 
L 603 4863 
z
" transform="scale(0.015625)"/>
       <path id="DejaVuSans-74" d="M 1172 4494 
L 1172 3500 
L 2356 3500 
L 2356 3053 
L 1172 3053 
L 1172 1153 
Q 1172 725 1289 603 
Q 1406 481 1766 481 
L 2356 481 
L 2356 0 
L 1766 0 
Q 1100 0 847 248 
Q 594 497 594 1153 
L 594 3053 
L 172 3053 
L 172 3500 
L 594 3500 
L 594 4494 
L 1172 4494 
z
" transform="scale(0.015625)"/>
       <path id="DejaVuSans-64" d="M 2906 2969 
L 2906 4863 
L 3481 4863 
L 3481 0 
L 2906 0 
L 2906 525 
Q 2725 213 2448 61 
Q 2172 -91 1784 -91 
Q 1150 -91 751 415 
Q 353 922 353 1747 
Q 353 2572 751 3078 
Q 1150 3584 1784 3584 
Q 2172 3584 2448 3432 
Q 2725 3281 2906 2969 
z
M 947 1747 
Q 947 1113 1208 752 
Q 1469 391 1925 391 
Q 2381 391 2643 752 
Q 2906 1113 2906 1747 
Q 2906 2381 2643 2742 
Q 2381 3103 1925 3103 
Q 1469 3103 1208 2742 
Q 947 2381 947 1747 
z
" transform="scale(0.015625)"/>
      </defs>
      <use xlink:href="#DejaVuSans-394" transform="translate(0 0.015625)"/>
      <use xlink:href="#DejaVuSans-20" transform="translate(68.408203 0.015625)"/>
      <use xlink:href="#DejaVuSans-4c" transform="translate(100.195312 0.015625)"/>
      <use xlink:href="#DejaVuSans-6f" transform="translate(155.908203 0.015625)"/>
      <use xlink:href="#DejaVuSans-67" transform="translate(217.089844 0.015625)"/>
      <use xlink:href="#DejaVuSans-20" transform="translate(280.566406 0.015625)"/>
      <use xlink:href="#DejaVuSans-61" transform="translate(312.353516 0.015625)"/>
      <use xlink:href="#DejaVuSans-6d" transform="translate(373.632812 0.015625)"/>
      <use xlink:href="#DejaVuSans-70" transform="translate(471.044922 0.015625)"/>
      <use xlink:href="#DejaVuSans-6c" transform="translate(534.521484 0.015625)"/>
      <use xlink:href="#DejaVuSans-69" transform="translate(562.304688 0.015625)"/>
      <use xlink:href="#DejaVuSans-74" transform="translate(590.087891 0.015625)"/>
      <use xlink:href="#DejaVuSans-75" transform="translate(629.296875 0.015625)"/>
      <use xlink:href="#DejaVuSans-64" transform="translate(692.675781 0.015625)"/>
      <use xlink:href="#DejaVuSans-65" transform="translate(756.152344 0.015625)"/>
     </g>
    </g>
   </g>
   <g id="line2d_15">
    <path d="M 74.918 30.643273 
L 94.499077 249.464738 
L 114.080154 301.506263 
L 133.661231 333.452323 
L 153.242308 358.244022 
L 172.823385 379.061611 
L 192.404462 388.754258 
L 211.985538 402.7209 
L 231.566615 416.417802 
L 251.147692 420.013671 
L 270.728769 421.124385 
L 290.309846 424.010279 
L 309.890923 422.986468 
L 329.472 427.508727 
" clip-path="url(#p1fbb4cf313)" style="fill: none; stroke: #f0f921; stroke-width: 1.5; stroke-linecap: square"/>
   </g>
   <g id="line2d_16">
    <path d="M 74.918 30.643273 
L 94.499077 233.216963 
L 114.080154 285.731496 
L 133.661231 318.57558 
L 153.242308 343.071728 
L 172.823385 364.099524 
L 192.404462 373.718782 
L 211.985538 387.952146 
L 231.566615 401.540693 
L 251.147692 405.162324 
L 270.728769 406.515362 
L 290.309846 409.243278 
L 309.890923 408.528775 
L 329.472 412.857945 
" clip-path="url(#p1fbb4cf313)" style="fill: none; stroke: #f6e826; stroke-width: 1.5; stroke-linecap: square"/>
   </g>
   <g id="line2d_17">
    <path d="M 74.918 30.643273 
L 94.499077 240.889258 
L 114.080154 294.858145 
L 133.661231 326.223623 
L 153.242308 353.927294 
L 172.823385 374.086577 
L 192.404462 383.711022 
L 211.985538 399.098222 
L 231.566615 411.403639 
L 251.147692 417.795359 
L 270.728769 419.231184 
L 290.309846 420.229137 
L 309.890923 421.104516 
L 329.472 423.576474 
" clip-path="url(#p1fbb4cf313)" style="fill: none; stroke: #fbd724; stroke-width: 1.5; stroke-linecap: square"/>
   </g>
   <g id="line2d_18">
    <path d="M 74.918 30.643273 
L 94.499077 227.064279 
L 114.080154 280.710759 
L 133.661231 312.855095 
L 153.242308 340.869292 
L 172.823385 361.220277 
L 192.404462 370.579169 
L 211.985538 385.920471 
L 231.566615 398.54849 
L 251.147692 404.752064 
L 270.728769 406.508958 
L 290.309846 407.614096 
L 309.890923 408.261177 
L 329.472 410.454798 
" clip-path="url(#p1fbb4cf313)" style="fill: none; stroke: #fdc627; stroke-width: 1.5; stroke-linecap: square"/>
   </g>
   <g id="line2d_19">
    <path d="M 74.918 30.643273 
L 94.499077 223.61397 
L 114.080154 281.206777 
L 133.661231 314.025343 
L 153.242308 340.962598 
L 172.823385 363.390109 
L 192.404462 374.975543 
L 211.985538 389.506868 
L 231.566615 401.252106 
L 251.147692 408.585703 
L 270.728769 409.01459 
L 290.309846 415.48452 
L 309.890923 411.364339 
L 329.472 415.208497 
" clip-path="url(#p1fbb4cf313)" style="fill: none; stroke: #feb72d; stroke-width: 1.5; stroke-linecap: square"/>
   </g>
   <g id="line2d_20">
    <path d="M 74.918 30.643273 
L 94.499077 205.725033 
L 114.080154 263.148686 
L 133.661231 296.828606 
L 153.242308 323.540728 
L 172.823385 346.300874 
L 192.404462 357.996707 
L 211.985538 372.161722 
L 231.566615 384.772673 
L 251.147692 391.475527 
L 270.728769 392.14966 
L 290.309846 398.527939 
L 309.890923 394.276224 
L 329.472 398.075092 
" clip-path="url(#p1fbb4cf313)" style="fill: none; stroke: #fca636; stroke-width: 1.5; stroke-linecap: square"/>
   </g>
   <g id="line2d_21">
    <path d="M 74.918 30.643273 
L 94.499077 201.668428 
L 114.080154 258.632002 
L 133.661231 290.536231 
L 153.242308 316.771814 
L 172.823385 340.595655 
L 192.404462 354.484283 
L 211.985538 367.154645 
L 231.566615 380.323802 
L 251.147692 385.0027 
L 270.728769 389.462893 
L 290.309846 395.482168 
L 309.890923 390.431092 
L 329.472 396.178824 
" clip-path="url(#p1fbb4cf313)" style="fill: none; stroke: #f9983e; stroke-width: 1.5; stroke-linecap: square"/>
   </g>
   <g id="line2d_22">
    <path d="M 74.918 30.643273 
L 94.499077 192.802412 
L 114.080154 247.531215 
L 133.661231 280.669974 
L 153.242308 306.272209 
L 172.823385 329.541302 
L 192.404462 344.142485 
L 211.985538 355.053129 
L 231.566615 368.897344 
L 251.147692 373.905103 
L 270.728769 377.282778 
L 290.309846 383.952469 
L 309.890923 379.811323 
L 329.472 385.557229 
" clip-path="url(#p1fbb4cf313)" style="fill: none; stroke: #f58b47; stroke-width: 1.5; stroke-linecap: square"/>
   </g>
   <g id="line2d_23">
    <path d="M 74.918 30.643273 
L 94.499077 186.015699 
L 114.080154 239.413622 
L 133.661231 272.378332 
L 153.242308 299.006255 
L 172.823385 323.502743 
L 192.404462 333.258796 
L 211.985538 345.664239 
L 231.566615 359.878878 
L 251.147692 366.53637 
L 270.728769 369.613333 
L 290.309846 374.138344 
L 309.890923 370.864347 
L 329.472 375.801542 
" clip-path="url(#p1fbb4cf313)" style="fill: none; stroke: #ef7e50; stroke-width: 1.5; stroke-linecap: square"/>
   </g>
   <g id="line2d_24">
    <path d="M 74.918 30.643273 
L 94.499077 186.468302 
L 114.080154 235.074638 
L 133.661231 268.307361 
L 153.242308 293.21786 
L 172.823385 317.458292 
L 192.404462 326.6632 
L 211.985538 338.977211 
L 231.566615 353.373861 
L 251.147692 360.642859 
L 270.728769 362.948852 
L 290.309846 367.796613 
L 309.890923 364.482805 
L 329.472 368.945239 
" clip-path="url(#p1fbb4cf313)" style="fill: none; stroke: #e87059; stroke-width: 1.5; stroke-linecap: square"/>
   </g>
   <g id="line2d_25">
    <path d="M 74.918 30.643273 
L 94.499077 189.489457 
L 114.080154 240.800188 
L 133.661231 269.687402 
L 153.242308 293.545917 
L 172.823385 320.558727 
L 192.404462 330.637845 
L 211.985538 340.268548 
L 231.566615 354.526309 
L 251.147692 362.268121 
L 270.728769 364.867328 
L 290.309846 369.377656 
L 309.890923 365.656121 
L 329.472 370.087631 
" clip-path="url(#p1fbb4cf313)" style="fill: none; stroke: #e16462; stroke-width: 1.5; stroke-linecap: square"/>
   </g>
   <g id="line2d_26">
    <path d="M 74.918 30.643273 
L 94.499077 196.800056 
L 114.080154 241.036327 
L 133.661231 267.753343 
L 153.242308 291.407008 
L 172.823385 318.911259 
L 192.404462 328.46346 
L 211.985538 337.781518 
L 231.566615 351.077266 
L 251.147692 358.909438 
L 270.728769 361.487266 
L 290.309846 366.409778 
L 309.890923 362.967455 
L 329.472 367.3584 
" clip-path="url(#p1fbb4cf313)" style="fill: none; stroke: #d9586a; stroke-width: 1.5; stroke-linecap: square"/>
   </g>
   <g id="line2d_27">
    <path d="M 74.918 30.643273 
L 94.499077 204.596227 
L 114.080154 245.084532 
L 133.661231 275.543269 
L 153.242308 297.628624 
L 172.823385 324.784681 
L 192.404462 335.50097 
L 211.985538 345.161646 
L 231.566615 355.574982 
L 251.147692 364.686023 
L 270.728769 368.311599 
L 290.309846 370.218727 
L 309.890923 365.857952 
L 329.472 372.799916 
" clip-path="url(#p1fbb4cf313)" style="fill: none; stroke: #d04d73; stroke-width: 1.5; stroke-linecap: square"/>
   </g>
   <g id="line2d_28">
    <path d="M 74.918 30.643273 
L 94.499077 207.244144 
L 114.080154 245.675171 
L 133.661231 273.375311 
L 153.242308 292.960513 
L 172.823385 318.137489 
L 192.404462 329.594968 
L 211.985538 338.3453 
L 231.566615 347.735968 
L 251.147692 356.461683 
L 270.728769 359.701348 
L 290.309846 362.036024 
L 309.890923 358.371247 
L 329.472 364.366878 
" clip-path="url(#p1fbb4cf313)" style="fill: none; stroke: #c6417d; stroke-width: 1.5; stroke-linecap: square"/>
   </g>
   <g id="line2d_29">
    <path d="M 74.918 30.643273 
L 94.499077 212.857919 
L 114.080154 250.429016 
L 133.661231 279.170987 
L 153.242308 300.433728 
L 172.823385 324.472597 
L 192.404462 337.274519 
L 211.985538 345.206766 
L 231.566615 354.379654 
L 251.147692 361.942426 
L 270.728769 363.417648 
L 290.309846 368.828727 
L 309.890923 364.182993 
L 329.472 369.157101 
" clip-path="url(#p1fbb4cf313)" style="fill: none; stroke: #bc3587; stroke-width: 1.5; stroke-linecap: square"/>
   </g>
   <g id="line2d_30">
    <path d="M 74.918 30.643273 
L 94.499077 203.674609 
L 114.080154 236.909328 
L 133.661231 265.712342 
L 153.242308 281.679006 
L 172.823385 308.163292 
L 192.404462 317.870062 
L 211.985538 325.285204 
L 231.566615 333.720116 
L 251.147692 341.266209 
L 270.728769 342.815599 
L 290.309846 348.483733 
L 309.890923 342.965566 
L 329.472 347.305133 
" clip-path="url(#p1fbb4cf313)" style="fill: none; stroke: #b12a90; stroke-width: 1.5; stroke-linecap: square"/>
   </g>
   <g id="line2d_31">
    <path d="M 74.918 30.643273 
L 94.499077 209.76491 
L 114.080154 244.553402 
L 133.661231 271.905227 
L 153.242308 285.432633 
L 172.823385 305.74237 
L 192.404462 317.669254 
L 211.985538 326.208064 
L 231.566615 335.237974 
L 251.147692 337.240917 
L 270.728769 335.504817 
L 290.309846 341.196546 
L 309.890923 338.658553 
L 329.472 342.391313 
" clip-path="url(#p1fbb4cf313)" style="fill: none; stroke: #a51f99; stroke-width: 1.5; stroke-linecap: square"/>
   </g>
   <g id="line2d_32">
    <path d="M 74.918 30.643273 
L 94.499077 189.869073 
L 114.080154 229.038928 
L 133.661231 256.632005 
L 153.242308 265.954471 
L 172.823385 287.115798 
L 192.404462 295.107286 
L 211.985538 301.523867 
L 231.566615 309.469384 
L 251.147692 312.492828 
L 270.728769 311.182839 
L 290.309846 315.746054 
L 309.890923 313.1692 
L 329.472 316.743764 
" clip-path="url(#p1fbb4cf313)" style="fill: none; stroke: #9613a1; stroke-width: 1.5; stroke-linecap: square"/>
   </g>
   <g id="line2d_33">
    <path d="M 74.918 30.643273 
L 94.499077 207.568452 
L 114.080154 247.45807 
L 133.661231 271.846107 
L 153.242308 280.047827 
L 172.823385 299.299127 
L 192.404462 304.274867 
L 211.985538 313.70464 
L 231.566615 317.672492 
L 251.147692 320.861339 
L 270.728769 318.822481 
L 290.309846 322.523661 
L 309.890923 321.389011 
L 329.472 322.749744 
" clip-path="url(#p1fbb4cf313)" style="fill: none; stroke: #8808a6; stroke-width: 1.5; stroke-linecap: square"/>
   </g>
   <g id="line2d_34">
    <path d="M 74.918 30.643273 
L 94.499077 201.351121 
L 114.080154 245.948101 
L 133.661231 272.614812 
L 153.242308 276.445505 
L 172.823385 295.754391 
L 192.404462 298.842019 
L 211.985538 309.233099 
L 231.566615 312.652997 
L 251.147692 315.98794 
L 270.728769 312.96082 
L 290.309846 316.9875 
L 309.890923 314.98424 
L 329.472 319.215161 
" clip-path="url(#p1fbb4cf313)" style="fill: none; stroke: #7a02a8; stroke-width: 1.5; stroke-linecap: square"/>
   </g>
   <g id="line2d_35">
    <path d="M 74.918 30.643273 
L 94.499077 230.909618 
L 114.080154 276.034709 
L 133.661231 292.557119 
L 153.242308 299.09547 
L 172.823385 312.16555 
L 192.404462 319.857104 
L 211.985538 325.843288 
L 231.566615 327.303876 
L 251.147692 331.104352 
L 270.728769 329.248138 
L 290.309846 325.851445 
L 309.890923 324.996568 
L 329.472 330.610477 
" clip-path="url(#p1fbb4cf313)" style="fill: none; stroke: #6a00a8; stroke-width: 1.5; stroke-linecap: square"/>
   </g>
   <g id="line2d_36">
    <path d="M 74.918 30.643273 
L 94.499077 232.501644 
L 114.080154 282.687258 
L 133.661231 302.438521 
L 153.242308 307.463325 
L 172.823385 321.893844 
L 192.404462 329.205624 
L 211.985538 333.836919 
L 231.566615 336.157888 
L 251.147692 339.983078 
L 270.728769 338.562495 
L 290.309846 335.311825 
L 309.890923 335.512414 
L 329.472 340.061287 
" clip-path="url(#p1fbb4cf313)" style="fill: none; stroke: #5901a5; stroke-width: 1.5; stroke-linecap: square"/>
   </g>
   <g id="line2d_37">
    <path d="M 74.918 30.643273 
L 94.499077 263.479032 
L 114.080154 303.679747 
L 133.661231 308.672946 
L 153.242308 311.246634 
L 172.823385 321.509662 
L 192.404462 324.26782 
L 211.985538 325.977501 
L 231.566615 326.633128 
L 251.147692 334.570708 
L 270.728769 323.738882 
L 290.309846 317.675316 
L 309.890923 311.0973 
L 329.472 333.865359 
" clip-path="url(#p1fbb4cf313)" style="fill: none; stroke: #4903a0; stroke-width: 1.5; stroke-linecap: square"/>
   </g>
   <g id="line2d_38">
    <path d="M 74.918 30.643273 
L 94.499077 232.274636 
L 114.080154 270.144023 
L 133.661231 271.412739 
L 153.242308 272.058822 
L 172.823385 282.198009 
L 192.404462 285.114048 
L 211.985538 287.342416 
L 231.566615 284.066398 
L 251.147692 292.578814 
L 270.728769 288.333016 
L 290.309846 278.24893 
L 309.890923 267.547568 
L 329.472 290.558486 
" clip-path="url(#p1fbb4cf313)" style="fill: none; stroke: #38049a; stroke-width: 1.5; stroke-linecap: square"/>
   </g>
   <g id="patch_3">
    <path d="M 74.918 447.352 
L 74.918 10.8 
" style="fill: none; stroke: #000000; stroke-width: 0.8; stroke-linejoin: miter; stroke-linecap: square"/>
   </g>
   <g id="patch_4">
    <path d="M 329.472 447.352 
L 329.472 10.8 
" style="fill: none; stroke: #000000; stroke-width: 0.8; stroke-linejoin: miter; stroke-linecap: square"/>
   </g>
   <g id="patch_5">
    <path d="M 74.918 447.352 
L 329.472 447.352 
" style="fill: none; stroke: #000000; stroke-width: 0.8; stroke-linejoin: miter; stroke-linecap: square"/>
   </g>
   <g id="patch_6">
    <path d="M 74.918 10.8 
L 329.472 10.8 
" style="fill: none; stroke: #000000; stroke-width: 0.8; stroke-linejoin: miter; stroke-linecap: square"/>
   </g>
  </g>
 </g>
 <defs>
  <clipPath id="p1fbb4cf313">
   <rect x="74.918" y="10.8" width="254.554" height="436.552"/>
  </clipPath>
 </defs>
</svg>
