<?xml version="1.0" encoding="utf-8" standalone="no"?>
<!DOCTYPE svg PUBLIC "-//W3C//DTD SVG 1.1//EN"
  "http://www.w3.org/Graphics/SVG/1.1/DTD/svg11.dtd">
<svg xmlns:xlink="http://www.w3.org/1999/xlink" width="360pt" height="504pt" viewBox="0 0 360 504" xmlns="http://www.w3.org/2000/svg" version="1.1">
 <metadata>
  <rdf:RDF xmlns:dc="http://purl.org/dc/elements/1.1/" xmlns:cc="http://creativecommons.org/ns#" xmlns:rdf="http://www.w3.org/1999/02/22-rdf-syntax-ns#">
   <cc:Work>
    <dc:type rdf:resource="http://purl.org/dc/dcmitype/StillImage"/>
    <dc:date>2024-02-19T04:31:13.205904</dc:date>
    <dc:format>image/svg+xml</dc:format>
    <dc:creator>
     <cc:Agent>
      <dc:title>Matplotlib v3.7.4, https://matplotlib.org/</dc:title>
     </cc:Agent>
    </dc:creator>
   </cc:Work>
  </rdf:RDF>
 </metadata>
 <defs>
  <style type="text/css">*{stroke-linejoin: round; stroke-linecap: butt}</style>
 </defs>
 <g id="figure_1">
  <g id="patch_1">
   <path d="M 0 504 
L 360 504 
L 360 0 
L 0 0 
z
" style="fill: #ffffff"/>
  </g>
  <g id="axes_1">
   <g id="patch_2">
    <path d="M 74.918 447.352 
L 329.472 447.352 
L 329.472 10.8 
L 74.918 10.8 
z
" style="fill: #ffffff"/>
   </g>
   <g id="matplotlib.axis_1">
    <g id="xtick_1">
     <g id="line2d_1">
      <defs>
       <path id="m169a485e09" d="M 0 0 
L 0 3.5 
" style="stroke: #000000; stroke-width: 0.8"/>
      </defs>
      <g>
       <use xlink:href="#m169a485e09" x="74.918" y="447.352" style="stroke: #000000; stroke-width: 0.8"/>
      </g>
     </g>
     <g id="text_1">
      <!-- 0.0π -->
      <g transform="translate(55.186906 468.029188) scale(0.18 -0.18)">
       <defs>
        <path id="DejaVuSans-30" d="M 2034 4250 
Q 1547 4250 1301 3770 
Q 1056 3291 1056 2328 
Q 1056 1369 1301 889 
Q 1547 409 2034 409 
Q 2525 409 2770 889 
Q 3016 1369 3016 2328 
Q 3016 3291 2770 3770 
Q 2525 4250 2034 4250 
z
M 2034 4750 
Q 2819 4750 3233 4129 
Q 3647 3509 3647 2328 
Q 3647 1150 3233 529 
Q 2819 -91 2034 -91 
Q 1250 -91 836 529 
Q 422 1150 422 2328 
Q 422 3509 836 4129 
Q 1250 4750 2034 4750 
z
" transform="scale(0.015625)"/>
        <path id="DejaVuSans-2e" d="M 684 794 
L 1344 794 
L 1344 0 
L 684 0 
L 684 794 
z
" transform="scale(0.015625)"/>
        <path id="DejaVuSans-3c0" d="M 231 3500 
L 3584 3500 
L 3584 2925 
L 3144 2925 
L 3144 775 
Q 3144 550 3220 451 
Q 3297 353 3469 353 
Q 3516 353 3584 361 
Q 3653 369 3675 372 
L 3675 -44 
Q 3566 -84 3450 -103 
Q 3334 -122 3219 -122 
Q 2844 -122 2700 83 
Q 2556 288 2556 838 
L 2556 2925 
L 1266 2925 
L 1266 0 
L 678 0 
L 678 2925 
L 231 2925 
L 231 3500 
z
" transform="scale(0.015625)"/>
       </defs>
       <use xlink:href="#DejaVuSans-30"/>
       <use xlink:href="#DejaVuSans-2e" x="63.623047"/>
       <use xlink:href="#DejaVuSans-30" x="95.410156"/>
       <use xlink:href="#DejaVuSans-3c0" x="159.033203"/>
      </g>
     </g>
    </g>
    <g id="xtick_2">
     <g id="line2d_2">
      <g>
       <use xlink:href="#m169a485e09" x="138.5565" y="447.352" style="stroke: #000000; stroke-width: 0.8"/>
      </g>
     </g>
     <g id="text_2">
      <!-- 0.2π -->
      <g transform="translate(118.825406 468.029188) scale(0.18 -0.18)">
       <defs>
        <path id="DejaVuSans-32" d="M 1228 531 
L 3431 531 
L 3431 0 
L 469 0 
L 469 531 
Q 828 903 1448 1529 
Q 2069 2156 2228 2338 
Q 2531 2678 2651 2914 
Q 2772 3150 2772 3378 
Q 2772 3750 2511 3984 
Q 2250 4219 1831 4219 
Q 1534 4219 1204 4116 
Q 875 4013 500 3803 
L 500 4441 
Q 881 4594 1212 4672 
Q 1544 4750 1819 4750 
Q 2544 4750 2975 4387 
Q 3406 4025 3406 3419 
Q 3406 3131 3298 2873 
Q 3191 2616 2906 2266 
Q 2828 2175 2409 1742 
Q 1991 1309 1228 531 
z
" transform="scale(0.015625)"/>
       </defs>
       <use xlink:href="#DejaVuSans-30"/>
       <use xlink:href="#DejaVuSans-2e" x="63.623047"/>
       <use xlink:href="#DejaVuSans-32" x="95.410156"/>
       <use xlink:href="#DejaVuSans-3c0" x="159.033203"/>
      </g>
     </g>
    </g>
    <g id="xtick_3">
     <g id="line2d_3">
      <g>
       <use xlink:href="#m169a485e09" x="202.195" y="447.352" style="stroke: #000000; stroke-width: 0.8"/>
      </g>
     </g>
     <g id="text_3">
      <!-- 0.5π -->
      <g transform="translate(182.463906 468.029188) scale(0.18 -0.18)">
       <defs>
        <path id="DejaVuSans-35" d="M 691 4666 
L 3169 4666 
L 3169 4134 
L 1269 4134 
L 1269 2991 
Q 1406 3038 1543 3061 
Q 1681 3084 1819 3084 
Q 2600 3084 3056 2656 
Q 3513 2228 3513 1497 
Q 3513 744 3044 326 
Q 2575 -91 1722 -91 
Q 1428 -91 1123 -41 
Q 819 9 494 109 
L 494 744 
Q 775 591 1075 516 
Q 1375 441 1709 441 
Q 2250 441 2565 725 
Q 2881 1009 2881 1497 
Q 2881 1984 2565 2268 
Q 2250 2553 1709 2553 
Q 1456 2553 1204 2497 
Q 953 2441 691 2322 
L 691 4666 
z
" transform="scale(0.015625)"/>
       </defs>
       <use xlink:href="#DejaVuSans-30"/>
       <use xlink:href="#DejaVuSans-2e" x="63.623047"/>
       <use xlink:href="#DejaVuSans-35" x="95.410156"/>
       <use xlink:href="#DejaVuSans-3c0" x="159.033203"/>
      </g>
     </g>
    </g>
    <g id="xtick_4">
     <g id="line2d_4">
      <g>
       <use xlink:href="#m169a485e09" x="265.8335" y="447.352" style="stroke: #000000; stroke-width: 0.8"/>
      </g>
     </g>
     <g id="text_4">
      <!-- 0.8π -->
      <g transform="translate(246.102406 468.029188) scale(0.18 -0.18)">
       <defs>
        <path id="DejaVuSans-38" d="M 2034 2216 
Q 1584 2216 1326 1975 
Q 1069 1734 1069 1313 
Q 1069 891 1326 650 
Q 1584 409 2034 409 
Q 2484 409 2743 651 
Q 3003 894 3003 1313 
Q 3003 1734 2745 1975 
Q 2488 2216 2034 2216 
z
M 1403 2484 
Q 997 2584 770 2862 
Q 544 3141 544 3541 
Q 544 4100 942 4425 
Q 1341 4750 2034 4750 
Q 2731 4750 3128 4425 
Q 3525 4100 3525 3541 
Q 3525 3141 3298 2862 
Q 3072 2584 2669 2484 
Q 3125 2378 3379 2068 
Q 3634 1759 3634 1313 
Q 3634 634 3220 271 
Q 2806 -91 2034 -91 
Q 1263 -91 848 271 
Q 434 634 434 1313 
Q 434 1759 690 2068 
Q 947 2378 1403 2484 
z
M 1172 3481 
Q 1172 3119 1398 2916 
Q 1625 2713 2034 2713 
Q 2441 2713 2670 2916 
Q 2900 3119 2900 3481 
Q 2900 3844 2670 4047 
Q 2441 4250 2034 4250 
Q 1625 4250 1398 4047 
Q 1172 3844 1172 3481 
z
" transform="scale(0.015625)"/>
       </defs>
       <use xlink:href="#DejaVuSans-30"/>
       <use xlink:href="#DejaVuSans-2e" x="63.623047"/>
       <use xlink:href="#DejaVuSans-38" x="95.410156"/>
       <use xlink:href="#DejaVuSans-3c0" x="159.033203"/>
      </g>
     </g>
    </g>
    <g id="xtick_5">
     <g id="line2d_5">
      <g>
       <use xlink:href="#m169a485e09" x="329.472" y="447.352" style="stroke: #000000; stroke-width: 0.8"/>
      </g>
     </g>
     <g id="text_5">
      <!-- 1.0π -->
      <g transform="translate(309.740906 468.029188) scale(0.18 -0.18)">
       <defs>
        <path id="DejaVuSans-31" d="M 794 531 
L 1825 531 
L 1825 4091 
L 703 3866 
L 703 4441 
L 1819 4666 
L 2450 4666 
L 2450 531 
L 3481 531 
L 3481 0 
L 794 0 
L 794 531 
z
" transform="scale(0.015625)"/>
       </defs>
       <use xlink:href="#DejaVuSans-31"/>
       <use xlink:href="#DejaVuSans-2e" x="63.623047"/>
       <use xlink:href="#DejaVuSans-30" x="95.410156"/>
       <use xlink:href="#DejaVuSans-3c0" x="159.033203"/>
      </g>
     </g>
    </g>
    <g id="text_6">
     <!-- Frequency -->
     <g transform="translate(155.701562 489.449813) scale(0.18 -0.18)">
      <defs>
       <path id="DejaVuSans-46" d="M 628 4666 
L 3309 4666 
L 3309 4134 
L 1259 4134 
L 1259 2759 
L 3109 2759 
L 3109 2228 
L 1259 2228 
L 1259 0 
L 628 0 
L 628 4666 
z
" transform="scale(0.015625)"/>
       <path id="DejaVuSans-72" d="M 2631 2963 
Q 2534 3019 2420 3045 
Q 2306 3072 2169 3072 
Q 1681 3072 1420 2755 
Q 1159 2438 1159 1844 
L 1159 0 
L 581 0 
L 581 3500 
L 1159 3500 
L 1159 2956 
Q 1341 3275 1631 3429 
Q 1922 3584 2338 3584 
Q 2397 3584 2469 3576 
Q 2541 3569 2628 3553 
L 2631 2963 
z
" transform="scale(0.015625)"/>
       <path id="DejaVuSans-65" d="M 3597 1894 
L 3597 1613 
L 953 1613 
Q 991 1019 1311 708 
Q 1631 397 2203 397 
Q 2534 397 2845 478 
Q 3156 559 3463 722 
L 3463 178 
Q 3153 47 2828 -22 
Q 2503 -91 2169 -91 
Q 1331 -91 842 396 
Q 353 884 353 1716 
Q 353 2575 817 3079 
Q 1281 3584 2069 3584 
Q 2775 3584 3186 3129 
Q 3597 2675 3597 1894 
z
M 3022 2063 
Q 3016 2534 2758 2815 
Q 2500 3097 2075 3097 
Q 1594 3097 1305 2825 
Q 1016 2553 972 2059 
L 3022 2063 
z
" transform="scale(0.015625)"/>
       <path id="DejaVuSans-71" d="M 947 1747 
Q 947 1113 1208 752 
Q 1469 391 1925 391 
Q 2381 391 2643 752 
Q 2906 1113 2906 1747 
Q 2906 2381 2643 2742 
Q 2381 3103 1925 3103 
Q 1469 3103 1208 2742 
Q 947 2381 947 1747 
z
M 2906 525 
Q 2725 213 2448 61 
Q 2172 -91 1784 -91 
Q 1150 -91 751 415 
Q 353 922 353 1747 
Q 353 2572 751 3078 
Q 1150 3584 1784 3584 
Q 2172 3584 2448 3432 
Q 2725 3281 2906 2969 
L 2906 3500 
L 3481 3500 
L 3481 -1331 
L 2906 -1331 
L 2906 525 
z
" transform="scale(0.015625)"/>
       <path id="DejaVuSans-75" d="M 544 1381 
L 544 3500 
L 1119 3500 
L 1119 1403 
Q 1119 906 1312 657 
Q 1506 409 1894 409 
Q 2359 409 2629 706 
Q 2900 1003 2900 1516 
L 2900 3500 
L 3475 3500 
L 3475 0 
L 2900 0 
L 2900 538 
Q 2691 219 2414 64 
Q 2138 -91 1772 -91 
Q 1169 -91 856 284 
Q 544 659 544 1381 
z
M 1991 3584 
L 1991 3584 
z
" transform="scale(0.015625)"/>
       <path id="DejaVuSans-6e" d="M 3513 2113 
L 3513 0 
L 2938 0 
L 2938 2094 
Q 2938 2591 2744 2837 
Q 2550 3084 2163 3084 
Q 1697 3084 1428 2787 
Q 1159 2491 1159 1978 
L 1159 0 
L 581 0 
L 581 3500 
L 1159 3500 
L 1159 2956 
Q 1366 3272 1645 3428 
Q 1925 3584 2291 3584 
Q 2894 3584 3203 3211 
Q 3513 2838 3513 2113 
z
" transform="scale(0.015625)"/>
       <path id="DejaVuSans-63" d="M 3122 3366 
L 3122 2828 
Q 2878 2963 2633 3030 
Q 2388 3097 2138 3097 
Q 1578 3097 1268 2742 
Q 959 2388 959 1747 
Q 959 1106 1268 751 
Q 1578 397 2138 397 
Q 2388 397 2633 464 
Q 2878 531 3122 666 
L 3122 134 
Q 2881 22 2623 -34 
Q 2366 -91 2075 -91 
Q 1284 -91 818 406 
Q 353 903 353 1747 
Q 353 2603 823 3093 
Q 1294 3584 2113 3584 
Q 2378 3584 2631 3529 
Q 2884 3475 3122 3366 
z
" transform="scale(0.015625)"/>
       <path id="DejaVuSans-79" d="M 2059 -325 
Q 1816 -950 1584 -1140 
Q 1353 -1331 966 -1331 
L 506 -1331 
L 506 -850 
L 844 -850 
Q 1081 -850 1212 -737 
Q 1344 -625 1503 -206 
L 1606 56 
L 191 3500 
L 800 3500 
L 1894 763 
L 2988 3500 
L 3597 3500 
L 2059 -325 
z
" transform="scale(0.015625)"/>
      </defs>
      <use xlink:href="#DejaVuSans-46"/>
      <use xlink:href="#DejaVuSans-72" x="50.269531"/>
      <use xlink:href="#DejaVuSans-65" x="89.132812"/>
      <use xlink:href="#DejaVuSans-71" x="150.65625"/>
      <use xlink:href="#DejaVuSans-75" x="214.132812"/>
      <use xlink:href="#DejaVuSans-65" x="277.511719"/>
      <use xlink:href="#DejaVuSans-6e" x="339.035156"/>
      <use xlink:href="#DejaVuSans-63" x="402.414062"/>
      <use xlink:href="#DejaVuSans-79" x="457.394531"/>
     </g>
    </g>
   </g>
   <g id="matplotlib.axis_2">
    <g id="ytick_1">
     <g id="line2d_6">
      <defs>
       <path id="mcccc5be2b3" d="M 0 0 
L -3.5 0 
" style="stroke: #000000; stroke-width: 0.8"/>
      </defs>
      <g>
       <use xlink:href="#mcccc5be2b3" x="74.918" y="404.882965" style="stroke: #000000; stroke-width: 0.8"/>
      </g>
     </g>
     <g id="text_7">
      <!-- -6.0 -->
      <g transform="translate(32.798313 411.721558) scale(0.18 -0.18)">
       <defs>
        <path id="DejaVuSans-2d" d="M 313 2009 
L 1997 2009 
L 1997 1497 
L 313 1497 
L 313 2009 
z
" transform="scale(0.015625)"/>
        <path id="DejaVuSans-36" d="M 2113 2584 
Q 1688 2584 1439 2293 
Q 1191 2003 1191 1497 
Q 1191 994 1439 701 
Q 1688 409 2113 409 
Q 2538 409 2786 701 
Q 3034 994 3034 1497 
Q 3034 2003 2786 2293 
Q 2538 2584 2113 2584 
z
M 3366 4563 
L 3366 3988 
Q 3128 4100 2886 4159 
Q 2644 4219 2406 4219 
Q 1781 4219 1451 3797 
Q 1122 3375 1075 2522 
Q 1259 2794 1537 2939 
Q 1816 3084 2150 3084 
Q 2853 3084 3261 2657 
Q 3669 2231 3669 1497 
Q 3669 778 3244 343 
Q 2819 -91 2113 -91 
Q 1303 -91 875 529 
Q 447 1150 447 2328 
Q 447 3434 972 4092 
Q 1497 4750 2381 4750 
Q 2619 4750 2861 4703 
Q 3103 4656 3366 4563 
z
" transform="scale(0.015625)"/>
       </defs>
       <use xlink:href="#DejaVuSans-2d"/>
       <use xlink:href="#DejaVuSans-36" x="36.083984"/>
       <use xlink:href="#DejaVuSans-2e" x="99.707031"/>
       <use xlink:href="#DejaVuSans-30" x="131.494141"/>
      </g>
     </g>
    </g>
    <g id="ytick_2">
     <g id="line2d_7">
      <g>
       <use xlink:href="#mcccc5be2b3" x="74.918" y="342.509683" style="stroke: #000000; stroke-width: 0.8"/>
      </g>
     </g>
     <g id="text_8">
      <!-- -5.0 -->
      <g transform="translate(32.798313 349.348276) scale(0.18 -0.18)">
       <use xlink:href="#DejaVuSans-2d"/>
       <use xlink:href="#DejaVuSans-35" x="36.083984"/>
       <use xlink:href="#DejaVuSans-2e" x="99.707031"/>
       <use xlink:href="#DejaVuSans-30" x="131.494141"/>
      </g>
     </g>
    </g>
    <g id="ytick_3">
     <g id="line2d_8">
      <g>
       <use xlink:href="#mcccc5be2b3" x="74.918" y="280.136401" style="stroke: #000000; stroke-width: 0.8"/>
      </g>
     </g>
     <g id="text_9">
      <!-- -4.0 -->
      <g transform="translate(32.798313 286.974994) scale(0.18 -0.18)">
       <defs>
        <path id="DejaVuSans-34" d="M 2419 4116 
L 825 1625 
L 2419 1625 
L 2419 4116 
z
M 2253 4666 
L 3047 4666 
L 3047 1625 
L 3713 1625 
L 3713 1100 
L 3047 1100 
L 3047 0 
L 2419 0 
L 2419 1100 
L 313 1100 
L 313 1709 
L 2253 4666 
z
" transform="scale(0.015625)"/>
       </defs>
       <use xlink:href="#DejaVuSans-2d"/>
       <use xlink:href="#DejaVuSans-34" x="36.083984"/>
       <use xlink:href="#DejaVuSans-2e" x="99.707031"/>
       <use xlink:href="#DejaVuSans-30" x="131.494141"/>
      </g>
     </g>
    </g>
    <g id="ytick_4">
     <g id="line2d_9">
      <g>
       <use xlink:href="#mcccc5be2b3" x="74.918" y="217.763119" style="stroke: #000000; stroke-width: 0.8"/>
      </g>
     </g>
     <g id="text_10">
      <!-- -3.0 -->
      <g transform="translate(32.798313 224.601712) scale(0.18 -0.18)">
       <defs>
        <path id="DejaVuSans-33" d="M 2597 2516 
Q 3050 2419 3304 2112 
Q 3559 1806 3559 1356 
Q 3559 666 3084 287 
Q 2609 -91 1734 -91 
Q 1441 -91 1130 -33 
Q 819 25 488 141 
L 488 750 
Q 750 597 1062 519 
Q 1375 441 1716 441 
Q 2309 441 2620 675 
Q 2931 909 2931 1356 
Q 2931 1769 2642 2001 
Q 2353 2234 1838 2234 
L 1294 2234 
L 1294 2753 
L 1863 2753 
Q 2328 2753 2575 2939 
Q 2822 3125 2822 3475 
Q 2822 3834 2567 4026 
Q 2313 4219 1838 4219 
Q 1578 4219 1281 4162 
Q 984 4106 628 3988 
L 628 4550 
Q 988 4650 1302 4700 
Q 1616 4750 1894 4750 
Q 2613 4750 3031 4423 
Q 3450 4097 3450 3541 
Q 3450 3153 3228 2886 
Q 3006 2619 2597 2516 
z
" transform="scale(0.015625)"/>
       </defs>
       <use xlink:href="#DejaVuSans-2d"/>
       <use xlink:href="#DejaVuSans-33" x="36.083984"/>
       <use xlink:href="#DejaVuSans-2e" x="99.707031"/>
       <use xlink:href="#DejaVuSans-30" x="131.494141"/>
      </g>
     </g>
    </g>
    <g id="ytick_5">
     <g id="line2d_10">
      <g>
       <use xlink:href="#mcccc5be2b3" x="74.918" y="155.389837" style="stroke: #000000; stroke-width: 0.8"/>
      </g>
     </g>
     <g id="text_11">
      <!-- -2.0 -->
      <g transform="translate(32.798313 162.22843) scale(0.18 -0.18)">
       <use xlink:href="#DejaVuSans-2d"/>
       <use xlink:href="#DejaVuSans-32" x="36.083984"/>
       <use xlink:href="#DejaVuSans-2e" x="99.707031"/>
       <use xlink:href="#DejaVuSans-30" x="131.494141"/>
      </g>
     </g>
    </g>
    <g id="ytick_6">
     <g id="line2d_11">
      <g>
       <use xlink:href="#mcccc5be2b3" x="74.918" y="93.016555" style="stroke: #000000; stroke-width: 0.8"/>
      </g>
     </g>
     <g id="text_12">
      <!-- -1.0 -->
      <g transform="translate(32.798313 99.855148) scale(0.18 -0.18)">
       <use xlink:href="#DejaVuSans-2d"/>
       <use xlink:href="#DejaVuSans-31" x="36.083984"/>
       <use xlink:href="#DejaVuSans-2e" x="99.707031"/>
       <use xlink:href="#DejaVuSans-30" x="131.494141"/>
      </g>
     </g>
    </g>
    <g id="ytick_7">
     <g id="line2d_12">
      <g>
       <use xlink:href="#mcccc5be2b3" x="74.918" y="30.643273" style="stroke: #000000; stroke-width: 0.8"/>
      </g>
     </g>
     <g id="text_13">
      <!-- 0.0 -->
      <g transform="translate(39.292375 37.481866) scale(0.18 -0.18)">
       <use xlink:href="#DejaVuSans-30"/>
       <use xlink:href="#DejaVuSans-2e" x="63.623047"/>
       <use xlink:href="#DejaVuSans-30" x="95.410156"/>
      </g>
     </g>
    </g>
    <g id="text_14">
     <!-- $\Delta$ Log amplitude -->
     <g transform="translate(25.018313 302.696) rotate(-90) scale(0.18 -0.18)">
      <defs>
       <path id="DejaVuSans-394" d="M 2188 4044 
L 906 525 
L 3472 525 
L 2188 4044 
z
M 50 0 
L 1831 4666 
L 2547 4666 
L 4325 0 
L 50 0 
z
" transform="scale(0.015625)"/>
       <path id="DejaVuSans-20" transform="scale(0.015625)"/>
       <path id="DejaVuSans-4c" d="M 628 4666 
L 1259 4666 
L 1259 531 
L 3531 531 
L 3531 0 
L 628 0 
L 628 4666 
z
" transform="scale(0.015625)"/>
       <path id="DejaVuSans-6f" d="M 1959 3097 
Q 1497 3097 1228 2736 
Q 959 2375 959 1747 
Q 959 1119 1226 758 
Q 1494 397 1959 397 
Q 2419 397 2687 759 
Q 2956 1122 2956 1747 
Q 2956 2369 2687 2733 
Q 2419 3097 1959 3097 
z
M 1959 3584 
Q 2709 3584 3137 3096 
Q 3566 2609 3566 1747 
Q 3566 888 3137 398 
Q 2709 -91 1959 -91 
Q 1206 -91 779 398 
Q 353 888 353 1747 
Q 353 2609 779 3096 
Q 1206 3584 1959 3584 
z
" transform="scale(0.015625)"/>
       <path id="DejaVuSans-67" d="M 2906 1791 
Q 2906 2416 2648 2759 
Q 2391 3103 1925 3103 
Q 1463 3103 1205 2759 
Q 947 2416 947 1791 
Q 947 1169 1205 825 
Q 1463 481 1925 481 
Q 2391 481 2648 825 
Q 2906 1169 2906 1791 
z
M 3481 434 
Q 3481 -459 3084 -895 
Q 2688 -1331 1869 -1331 
Q 1566 -1331 1297 -1286 
Q 1028 -1241 775 -1147 
L 775 -588 
Q 1028 -725 1275 -790 
Q 1522 -856 1778 -856 
Q 2344 -856 2625 -561 
Q 2906 -266 2906 331 
L 2906 616 
Q 2728 306 2450 153 
Q 2172 0 1784 0 
Q 1141 0 747 490 
Q 353 981 353 1791 
Q 353 2603 747 3093 
Q 1141 3584 1784 3584 
Q 2172 3584 2450 3431 
Q 2728 3278 2906 2969 
L 2906 3500 
L 3481 3500 
L 3481 434 
z
" transform="scale(0.015625)"/>
       <path id="DejaVuSans-61" d="M 2194 1759 
Q 1497 1759 1228 1600 
Q 959 1441 959 1056 
Q 959 750 1161 570 
Q 1363 391 1709 391 
Q 2188 391 2477 730 
Q 2766 1069 2766 1631 
L 2766 1759 
L 2194 1759 
z
M 3341 1997 
L 3341 0 
L 2766 0 
L 2766 531 
Q 2569 213 2275 61 
Q 1981 -91 1556 -91 
Q 1019 -91 701 211 
Q 384 513 384 1019 
Q 384 1609 779 1909 
Q 1175 2209 1959 2209 
L 2766 2209 
L 2766 2266 
Q 2766 2663 2505 2880 
Q 2244 3097 1772 3097 
Q 1472 3097 1187 3025 
Q 903 2953 641 2809 
L 641 3341 
Q 956 3463 1253 3523 
Q 1550 3584 1831 3584 
Q 2591 3584 2966 3190 
Q 3341 2797 3341 1997 
z
" transform="scale(0.015625)"/>
       <path id="DejaVuSans-6d" d="M 3328 2828 
Q 3544 3216 3844 3400 
Q 4144 3584 4550 3584 
Q 5097 3584 5394 3201 
Q 5691 2819 5691 2113 
L 5691 0 
L 5113 0 
L 5113 2094 
Q 5113 2597 4934 2840 
Q 4756 3084 4391 3084 
Q 3944 3084 3684 2787 
Q 3425 2491 3425 1978 
L 3425 0 
L 2847 0 
L 2847 2094 
Q 2847 2600 2669 2842 
Q 2491 3084 2119 3084 
Q 1678 3084 1418 2786 
Q 1159 2488 1159 1978 
L 1159 0 
L 581 0 
L 581 3500 
L 1159 3500 
L 1159 2956 
Q 1356 3278 1631 3431 
Q 1906 3584 2284 3584 
Q 2666 3584 2933 3390 
Q 3200 3197 3328 2828 
z
" transform="scale(0.015625)"/>
       <path id="DejaVuSans-70" d="M 1159 525 
L 1159 -1331 
L 581 -1331 
L 581 3500 
L 1159 3500 
L 1159 2969 
Q 1341 3281 1617 3432 
Q 1894 3584 2278 3584 
Q 2916 3584 3314 3078 
Q 3713 2572 3713 1747 
Q 3713 922 3314 415 
Q 2916 -91 2278 -91 
Q 1894 -91 1617 61 
Q 1341 213 1159 525 
z
M 3116 1747 
Q 3116 2381 2855 2742 
Q 2594 3103 2138 3103 
Q 1681 3103 1420 2742 
Q 1159 2381 1159 1747 
Q 1159 1113 1420 752 
Q 1681 391 2138 391 
Q 2594 391 2855 752 
Q 3116 1113 3116 1747 
z
" transform="scale(0.015625)"/>
       <path id="DejaVuSans-6c" d="M 603 4863 
L 1178 4863 
L 1178 0 
L 603 0 
L 603 4863 
z
" transform="scale(0.015625)"/>
       <path id="DejaVuSans-69" d="M 603 3500 
L 1178 3500 
L 1178 0 
L 603 0 
L 603 3500 
z
M 603 4863 
L 1178 4863 
L 1178 4134 
L 603 4134 
L 603 4863 
z
" transform="scale(0.015625)"/>
       <path id="DejaVuSans-74" d="M 1172 4494 
L 1172 3500 
L 2356 3500 
L 2356 3053 
L 1172 3053 
L 1172 1153 
Q 1172 725 1289 603 
Q 1406 481 1766 481 
L 2356 481 
L 2356 0 
L 1766 0 
Q 1100 0 847 248 
Q 594 497 594 1153 
L 594 3053 
L 172 3053 
L 172 3500 
L 594 3500 
L 594 4494 
L 1172 4494 
z
" transform="scale(0.015625)"/>
       <path id="DejaVuSans-64" d="M 2906 2969 
L 2906 4863 
L 3481 4863 
L 3481 0 
L 2906 0 
L 2906 525 
Q 2725 213 2448 61 
Q 2172 -91 1784 -91 
Q 1150 -91 751 415 
Q 353 922 353 1747 
Q 353 2572 751 3078 
Q 1150 3584 1784 3584 
Q 2172 3584 2448 3432 
Q 2725 3281 2906 2969 
z
M 947 1747 
Q 947 1113 1208 752 
Q 1469 391 1925 391 
Q 2381 391 2643 752 
Q 2906 1113 2906 1747 
Q 2906 2381 2643 2742 
Q 2381 3103 1925 3103 
Q 1469 3103 1208 2742 
Q 947 2381 947 1747 
z
" transform="scale(0.015625)"/>
      </defs>
      <use xlink:href="#DejaVuSans-394" transform="translate(0 0.015625)"/>
      <use xlink:href="#DejaVuSans-20" transform="translate(68.408203 0.015625)"/>
      <use xlink:href="#DejaVuSans-4c" transform="translate(100.195312 0.015625)"/>
      <use xlink:href="#DejaVuSans-6f" transform="translate(155.908203 0.015625)"/>
      <use xlink:href="#DejaVuSans-67" transform="translate(217.089844 0.015625)"/>
      <use xlink:href="#DejaVuSans-20" transform="translate(280.566406 0.015625)"/>
      <use xlink:href="#DejaVuSans-61" transform="translate(312.353516 0.015625)"/>
      <use xlink:href="#DejaVuSans-6d" transform="translate(373.632812 0.015625)"/>
      <use xlink:href="#DejaVuSans-70" transform="translate(471.044922 0.015625)"/>
      <use xlink:href="#DejaVuSans-6c" transform="translate(534.521484 0.015625)"/>
      <use xlink:href="#DejaVuSans-69" transform="translate(562.304688 0.015625)"/>
      <use xlink:href="#DejaVuSans-74" transform="translate(590.087891 0.015625)"/>
      <use xlink:href="#DejaVuSans-75" transform="translate(629.296875 0.015625)"/>
      <use xlink:href="#DejaVuSans-64" transform="translate(692.675781 0.015625)"/>
      <use xlink:href="#DejaVuSans-65" transform="translate(756.152344 0.015625)"/>
     </g>
    </g>
   </g>
   <g id="line2d_13">
    <path d="M 74.918 30.643273 
L 94.499077 191.03577 
L 114.080154 214.603964 
L 133.661231 229.761209 
L 153.242308 244.306469 
L 172.823385 254.643013 
L 192.404462 265.552074 
L 211.985538 277.809276 
L 231.566615 285.578127 
L 251.147692 292.404874 
L 270.728769 298.596067 
L 290.309846 305.656258 
L 309.890923 306.664776 
L 329.472 308.217928 
" clip-path="url(#pb30fc8181f)" style="fill: none; stroke: #f0f921; stroke-width: 1.5; stroke-linecap: square"/>
   </g>
   <g id="line2d_14">
    <path d="M 74.918 30.643273 
L 94.499077 179.199178 
L 114.080154 202.61093 
L 133.661231 216.70166 
L 153.242308 228.802806 
L 172.823385 236.3121 
L 192.404462 242.203018 
L 211.985538 250.8061 
L 231.566615 257.105762 
L 251.147692 261.075918 
L 270.728769 267.651614 
L 290.309846 273.768541 
L 309.890923 275.141933 
L 329.472 276.842723 
" clip-path="url(#pb30fc8181f)" style="fill: none; stroke: #f8df25; stroke-width: 1.5; stroke-linecap: square"/>
   </g>
   <g id="line2d_15">
    <path d="M 74.918 30.643273 
L 84.345926 145.314166 
L 93.773852 165.098797 
L 103.201778 176.141919 
L 112.629704 182.619497 
L 122.05763 188.85783 
L 131.485556 194.415639 
L 140.913481 197.427482 
L 150.341407 197.476556 
L 159.769333 203.625813 
L 169.197259 210.34653 
L 178.625185 213.569808 
L 188.053111 214.572809 
L 197.481037 218.791504 
L 206.908963 222.733704 
L 216.336889 227.049803 
L 225.764815 232.171225 
L 235.192741 235.042701 
L 244.620667 237.478235 
L 254.048593 241.315936 
L 263.476519 242.276154 
L 272.904444 245.699282 
L 282.33237 246.534182 
L 291.760296 248.351353 
L 301.188222 249.54204 
L 310.616148 251.693063 
L 320.044074 251.498164 
L 329.472 252.18492 
" clip-path="url(#pb30fc8181f)" style="fill: none; stroke: #fdc627; stroke-width: 1.5; stroke-linecap: square"/>
   </g>
   <g id="line2d_16">
    <path d="M 74.918 30.643273 
L 84.345926 153.283159 
L 93.773852 176.788151 
L 103.201778 188.900584 
L 112.629704 197.615421 
L 122.05763 204.521788 
L 131.485556 209.442287 
L 140.913481 212.715606 
L 150.341407 212.190974 
L 159.769333 218.925878 
L 169.197259 227.363238 
L 178.625185 229.202002 
L 188.053111 229.74842 
L 197.481037 233.795861 
L 206.908963 238.799296 
L 216.336889 243.467436 
L 225.764815 249.15767 
L 235.192741 252.881802 
L 244.620667 255.823365 
L 254.048593 258.390478 
L 263.476519 259.929175 
L 272.904444 265.014222 
L 282.33237 264.600066 
L 291.760296 266.420255 
L 301.188222 268.075912 
L 310.616148 270.329991 
L 320.044074 270.571674 
L 329.472 271.244584 
" clip-path="url(#pb30fc8181f)" style="fill: none; stroke: #fdaf31; stroke-width: 1.5; stroke-linecap: square"/>
   </g>
   <g id="line2d_17">
    <path d="M 74.918 30.643273 
L 84.345926 156.38048 
L 93.773852 180.31096 
L 103.201778 193.388116 
L 112.629704 203.698011 
L 122.05763 210.853481 
L 131.485556 217.66219 
L 140.913481 221.825996 
L 150.341407 220.705039 
L 159.769333 227.680897 
L 169.197259 235.699997 
L 178.625185 238.163979 
L 188.053111 237.831539 
L 197.481037 242.70637 
L 206.908963 247.737733 
L 216.336889 252.705626 
L 225.764815 258.078664 
L 235.192741 261.863261 
L 244.620667 264.415487 
L 254.048593 267.696153 
L 263.476519 268.970236 
L 272.904444 274.073515 
L 282.33237 274.827695 
L 291.760296 275.909943 
L 301.188222 277.811045 
L 310.616148 278.909547 
L 320.044074 280.409699 
L 329.472 281.673284 
" clip-path="url(#pb30fc8181f)" style="fill: none; stroke: #f99a3e; stroke-width: 1.5; stroke-linecap: square"/>
   </g>
   <g id="line2d_18">
    <path d="M 74.918 30.643273 
L 84.345926 150.903881 
L 93.773852 174.957552 
L 103.201778 189.433425 
L 112.629704 201.420986 
L 122.05763 208.386539 
L 131.485556 214.053293 
L 140.913481 218.57192 
L 150.341407 219.416872 
L 159.769333 227.176311 
L 169.197259 233.455078 
L 178.625185 236.644941 
L 188.053111 235.618935 
L 197.481037 240.021286 
L 206.908963 245.721871 
L 216.336889 248.691853 
L 225.764815 253.80853 
L 235.192741 257.880136 
L 244.620667 260.551866 
L 254.048593 262.367118 
L 263.476519 263.823014 
L 272.904444 268.156423 
L 282.33237 269.287181 
L 291.760296 269.480325 
L 301.188222 270.886462 
L 310.616148 272.891601 
L 320.044074 272.916585 
L 329.472 273.971411 
" clip-path="url(#pb30fc8181f)" style="fill: none; stroke: #f3854b; stroke-width: 1.5; stroke-linecap: square"/>
   </g>
   <g id="line2d_19">
    <path d="M 74.918 30.643273 
L 84.345926 152.90699 
L 93.773852 176.871919 
L 103.201778 193.223837 
L 112.629704 206.504382 
L 122.05763 213.225338 
L 131.485556 219.7893 
L 140.913481 224.497056 
L 150.341407 225.049438 
L 159.769333 234.1399 
L 169.197259 241.296515 
L 178.625185 243.225708 
L 188.053111 242.11351 
L 197.481037 246.623319 
L 206.908963 251.11439 
L 216.336889 254.609702 
L 225.764815 259.462792 
L 235.192741 263.008473 
L 244.620667 266.291101 
L 254.048593 268.070454 
L 263.476519 269.743109 
L 272.904444 274.527926 
L 282.33237 274.570472 
L 291.760296 274.789581 
L 301.188222 276.565231 
L 310.616148 278.076596 
L 320.044074 278.494573 
L 329.472 279.738439 
" clip-path="url(#pb30fc8181f)" style="fill: none; stroke: #e97257; stroke-width: 1.5; stroke-linecap: square"/>
   </g>
   <g id="line2d_20">
    <path d="M 74.918 30.643273 
L 84.345926 148.902653 
L 93.773852 174.764037 
L 103.201778 190.511435 
L 112.629704 203.743977 
L 122.05763 212.092766 
L 131.485556 219.543826 
L 140.913481 222.813234 
L 150.341407 223.292316 
L 159.769333 232.191657 
L 169.197259 237.374659 
L 178.625185 240.231799 
L 188.053111 238.978863 
L 197.481037 243.437902 
L 206.908963 246.592149 
L 216.336889 250.308608 
L 225.764815 255.082138 
L 235.192741 258.766772 
L 244.620667 260.998545 
L 254.048593 262.343637 
L 263.476519 263.033619 
L 272.904444 268.220131 
L 282.33237 268.073607 
L 291.760296 267.416742 
L 301.188222 269.49179 
L 310.616148 270.879547 
L 320.044074 271.631586 
L 329.472 273.496656 
" clip-path="url(#pb30fc8181f)" style="fill: none; stroke: #de6164; stroke-width: 1.5; stroke-linecap: square"/>
   </g>
   <g id="line2d_21">
    <path d="M 74.918 30.643273 
L 79.546255 194.029396 
L 84.174509 224.711793 
L 88.802764 244.09844 
L 93.431018 256.438799 
L 98.059273 265.639723 
L 102.687527 272.600919 
L 107.315782 275.726287 
L 111.944036 277.705566 
L 116.572291 284.795915 
L 121.200545 292.988797 
L 125.8288 293.500328 
L 130.457055 288.429156 
L 135.085309 296.727978 
L 139.713564 297.308362 
L 144.341818 300.901718 
L 148.970073 305.678237 
L 153.598327 311.868211 
L 158.226582 311.754775 
L 162.854836 309.376732 
L 167.483091 311.435526 
L 172.111345 315.385666 
L 176.7396 315.283889 
L 181.367855 311.924066 
L 185.996109 320.590796 
L 190.624364 325.158051 
L 195.252618 319.820005 
L 199.880873 326.710905 
L 204.509127 324.788448 
L 209.137382 326.563504 
L 213.765636 329.297885 
L 218.393891 332.276566 
L 223.022145 333.363692 
L 227.6504 335.200373 
L 232.278655 332.663806 
L 236.906909 338.338917 
L 241.535164 341.84968 
L 246.163418 344.041599 
L 250.791673 346.504942 
L 255.419927 346.893192 
L 260.048182 347.042378 
L 264.676436 347.391786 
L 269.304691 349.648393 
L 273.932945 350.596118 
L 278.5612 351.41988 
L 283.189455 352.516315 
L 287.817709 353.516118 
L 292.445964 352.565805 
L 297.074218 355.794496 
L 301.702473 355.981514 
L 306.330727 354.8134 
L 310.958982 357.148556 
L 315.587236 358.029838 
L 320.215491 358.564122 
L 324.843745 359.809236 
L 329.472 359.065659 
" clip-path="url(#pb30fc8181f)" style="fill: none; stroke: #d24f71; stroke-width: 1.5; stroke-linecap: square"/>
   </g>
   <g id="line2d_22">
    <path d="M 74.918 30.643273 
L 79.546255 186.885555 
L 84.174509 215.43757 
L 88.802764 235.437004 
L 93.431018 248.714977 
L 98.059273 257.069001 
L 102.687527 265.139539 
L 107.315782 268.439507 
L 111.944036 270.588418 
L 116.572291 276.685344 
L 121.200545 286.402781 
L 125.8288 286.007095 
L 130.457055 280.658252 
L 135.085309 291.485433 
L 139.713564 291.417979 
L 144.341818 294.132849 
L 148.970073 297.534519 
L 153.598327 304.937337 
L 158.226582 303.264088 
L 162.854836 300.637937 
L 167.483091 304.396272 
L 172.111345 306.503783 
L 176.7396 306.682354 
L 181.367855 303.514039 
L 185.996109 312.688938 
L 190.624364 315.440778 
L 195.252618 311.213354 
L 199.880873 316.660077 
L 204.509127 314.873273 
L 209.137382 315.936724 
L 213.765636 316.999937 
L 218.393891 322.022749 
L 223.022145 322.901682 
L 227.6504 324.913394 
L 232.278655 321.283247 
L 236.906909 326.936111 
L 241.535164 330.04054 
L 246.163418 333.402535 
L 250.791673 335.29986 
L 255.419927 336.049921 
L 260.048182 335.461626 
L 264.676436 335.705212 
L 269.304691 337.330666 
L 273.932945 338.664888 
L 278.5612 339.448914 
L 283.189455 340.760056 
L 287.817709 341.226112 
L 292.445964 341.145035 
L 297.074218 343.134352 
L 301.702473 343.953771 
L 306.330727 343.567096 
L 310.958982 344.653033 
L 315.587236 347.180826 
L 320.215491 346.184354 
L 324.843745 347.321714 
L 329.472 346.995594 
" clip-path="url(#pb30fc8181f)" style="fill: none; stroke: #c43e7f; stroke-width: 1.5; stroke-linecap: square"/>
   </g>
   <g id="line2d_23">
    <path d="M 74.918 30.643273 
L 79.546255 173.800845 
L 84.174509 200.04178 
L 88.802764 219.561254 
L 93.431018 232.905374 
L 98.059273 241.932635 
L 102.687527 250.08129 
L 107.315782 255.184732 
L 111.944036 256.229357 
L 116.572291 263.391831 
L 121.200545 271.11949 
L 125.8288 271.673433 
L 130.457055 267.443317 
L 135.085309 278.84822 
L 139.713564 277.780753 
L 144.341818 280.049703 
L 148.970073 284.436365 
L 153.598327 291.29342 
L 158.226582 290.936576 
L 162.854836 286.449178 
L 167.483091 290.234548 
L 172.111345 292.547903 
L 176.7396 294.506913 
L 181.367855 292.775191 
L 185.996109 299.858135 
L 190.624364 300.803689 
L 195.252618 296.305762 
L 199.880873 302.371028 
L 204.509127 302.384233 
L 209.137382 301.793083 
L 213.765636 301.856314 
L 218.393891 306.002722 
L 223.022145 307.222586 
L 227.6504 308.723838 
L 232.278655 306.152888 
L 236.906909 309.083596 
L 241.535164 314.550424 
L 246.163418 315.382038 
L 250.791673 316.895662 
L 255.419927 317.64721 
L 260.048182 316.856135 
L 264.676436 315.643915 
L 269.304691 317.318443 
L 273.932945 319.135822 
L 278.5612 319.140283 
L 283.189455 320.63065 
L 287.817709 321.775505 
L 292.445964 320.902758 
L 297.074218 321.972277 
L 301.702473 322.428429 
L 306.330727 322.535559 
L 310.958982 322.489965 
L 315.587236 326.714772 
L 320.215491 324.69726 
L 324.843745 326.141259 
L 329.472 325.92563 
" clip-path="url(#pb30fc8181f)" style="fill: none; stroke: #b42e8d; stroke-width: 1.5; stroke-linecap: square"/>
   </g>
   <g id="line2d_24">
    <path d="M 74.918 30.643273 
L 79.546255 162.625178 
L 84.174509 186.76406 
L 88.802764 207.582036 
L 93.431018 219.690795 
L 98.059273 228.201945 
L 102.687527 236.665672 
L 107.315782 241.247069 
L 111.944036 242.52084 
L 116.572291 248.584351 
L 121.200545 256.632627 
L 125.8288 257.164264 
L 130.457055 252.559385 
L 135.085309 264.977223 
L 139.713564 264.014403 
L 144.341818 265.090272 
L 148.970073 269.555661 
L 153.598327 276.084811 
L 158.226582 275.918375 
L 162.854836 270.547345 
L 167.483091 275.630741 
L 172.111345 277.392874 
L 176.7396 279.877616 
L 181.367855 276.74981 
L 185.996109 283.98411 
L 190.624364 285.417104 
L 195.252618 280.347419 
L 199.880873 286.865594 
L 204.509127 286.59533 
L 209.137382 284.567587 
L 213.765636 284.448441 
L 218.393891 288.966354 
L 223.022145 289.100252 
L 227.6504 291.64256 
L 232.278655 288.064163 
L 236.906909 290.894045 
L 241.535164 296.462918 
L 246.163418 296.119846 
L 250.791673 298.796111 
L 255.419927 298.384156 
L 260.048182 297.546475 
L 264.676436 297.576574 
L 269.304691 297.329746 
L 273.932945 299.819113 
L 278.5612 300.60076 
L 283.189455 300.958615 
L 287.817709 301.544024 
L 292.445964 300.89348 
L 297.074218 301.964783 
L 301.702473 302.252298 
L 306.330727 301.642202 
L 310.958982 301.457981 
L 315.587236 306.132961 
L 320.215491 304.215739 
L 324.843745 305.759998 
L 329.472 305.620211 
" clip-path="url(#pb30fc8181f)" style="fill: none; stroke: #a21d9a; stroke-width: 1.5; stroke-linecap: square"/>
   </g>
   <g id="line2d_25">
    <path d="M 74.918 30.643273 
L 77.211279 205.71472 
L 79.504559 233.282189 
L 81.797838 258.947543 
L 84.091117 271.756532 
L 86.384396 280.973873 
L 88.677676 293.244964 
L 90.970955 302.002853 
L 93.264234 302.048744 
L 95.557514 311.313673 
L 97.850793 319.419143 
L 100.144072 317.989034 
L 102.437351 311.712125 
L 104.730631 327.810404 
L 107.02391 329.306332 
L 109.317189 329.218266 
L 111.610468 334.371377 
L 113.903748 343.26019 
L 116.197027 338.354531 
L 118.490306 335.048362 
L 120.783586 345.494699 
L 123.076865 343.973341 
L 125.370144 347.134399 
L 127.663423 346.361377 
L 129.956703 352.194359 
L 132.249982 349.010964 
L 134.543261 344.542779 
L 136.836541 357.916343 
L 139.12982 352.051746 
L 141.423099 345.616789 
L 143.716378 346.168174 
L 146.009658 355.464808 
L 148.302937 352.910425 
L 150.596216 357.684564 
L 152.889495 354.854474 
L 155.182775 357.268862 
L 157.476054 362.215951 
L 159.769333 366.151101 
L 162.062613 367.716299 
L 164.355892 368.79016 
L 166.649171 362.739349 
L 168.94245 371.566268 
L 171.23573 364.773367 
L 173.529009 372.575946 
L 175.822288 371.673875 
L 178.115568 376.468358 
L 180.408847 371.141495 
L 182.702126 371.045755 
L 184.995405 369.172105 
L 187.288685 375.711635 
L 189.581964 380.592845 
L 191.875243 382.669306 
L 194.168523 384.014532 
L 196.461802 387.207295 
L 198.755081 385.477565 
L 201.04836 392.295985 
L 203.34164 397.185999 
L 205.634919 385.697507 
L 207.928198 392.281858 
L 210.221477 386.798611 
L 212.514757 393.203648 
L 214.808036 397.111317 
L 217.101315 394.139507 
L 219.394595 396.478023 
L 221.687874 403.168969 
L 223.981153 402.973921 
L 226.274432 407.503315 
L 228.567712 404.984147 
L 230.860991 403.229375 
L 233.15427 400.853235 
L 235.44755 403.649479 
L 237.740829 401.969359 
L 240.034108 400.516586 
L 242.327387 408.019575 
L 244.620667 407.436991 
L 246.913946 406.283838 
L 249.207225 413.105588 
L 251.500505 413.200108 
L 253.793784 409.746628 
L 256.087063 405.892583 
L 258.380342 411.319617 
L 260.673622 406.013246 
L 262.966901 404.169665 
L 265.26018 410.241027 
L 267.553459 409.632419 
L 269.846739 417.919225 
L 272.140018 418.677465 
L 274.433297 422.472204 
L 276.726577 414.222367 
L 279.019856 414.66793 
L 281.313135 419.658978 
L 283.606414 412.397969 
L 285.899694 419.089807 
L 288.192973 415.422869 
L 290.486252 419.290238 
L 292.779532 422.686792 
L 295.072811 417.647028 
L 297.36609 423.31741 
L 299.659369 424.604282 
L 301.952649 419.393442 
L 304.245928 419.259366 
L 306.539207 419.782555 
L 308.832486 425.782418 
L 311.125766 426.523259 
L 313.419045 420.871942 
L 315.712324 416.927065 
L 318.005604 422.438269 
L 320.298883 422.733933 
L 322.592162 427.508727 
L 324.885441 427.206758 
L 327.178721 421.999279 
L 329.472 426.188514 
" clip-path="url(#pb30fc8181f)" style="fill: none; stroke: #8e0ca4; stroke-width: 1.5; stroke-linecap: square"/>
   </g>
   <g id="line2d_26">
    <path d="M 74.918 30.643273 
L 77.211279 192.628805 
L 79.504559 217.188803 
L 81.797838 239.000425 
L 84.091117 252.85441 
L 86.384396 257.06851 
L 88.677676 268.877858 
L 90.970955 276.552695 
L 93.264234 274.674004 
L 95.557514 285.486641 
L 97.850793 296.763252 
L 100.144072 293.079064 
L 102.437351 286.082133 
L 104.730631 298.972302 
L 107.02391 300.803808 
L 109.317189 298.231937 
L 111.610468 305.448362 
L 113.903748 316.102089 
L 116.197027 309.909647 
L 118.490306 305.099787 
L 120.783586 316.056286 
L 123.076865 313.391204 
L 125.370144 316.708675 
L 127.663423 317.950191 
L 129.956703 322.588083 
L 132.249982 317.073935 
L 134.543261 311.9144 
L 136.836541 326.229562 
L 139.12982 316.537421 
L 141.423099 312.314993 
L 143.716378 314.907833 
L 146.009658 321.536766 
L 148.302937 315.999122 
L 150.596216 322.312346 
L 152.889495 322.14591 
L 155.182775 322.366446 
L 157.476054 329.055637 
L 159.769333 331.165766 
L 162.062613 332.396842 
L 164.355892 333.291419 
L 166.649171 323.662182 
L 168.94245 335.584163 
L 171.23573 329.761413 
L 173.529009 335.707532 
L 175.822288 332.239597 
L 178.115568 343.700429 
L 180.408847 334.691757 
L 182.702126 332.20126 
L 184.995405 327.230139 
L 187.288685 333.170608 
L 189.581964 342.412813 
L 191.875243 342.774713 
L 194.168523 342.748183 
L 196.461802 346.762834 
L 198.755081 344.187542 
L 201.04836 351.827938 
L 203.34164 355.845177 
L 205.634919 347.5203 
L 207.928198 350.573663 
L 210.221477 345.855884 
L 212.514757 350.861803 
L 214.808036 354.607408 
L 217.101315 352.707823 
L 219.394595 352.189184 
L 221.687874 361.322326 
L 223.981153 359.304397 
L 226.274432 363.359646 
L 228.567712 363.102557 
L 230.860991 359.279652 
L 233.15427 355.680644 
L 235.44755 361.781481 
L 237.740829 358.993922 
L 240.034108 354.727595 
L 242.327387 361.7032 
L 244.620667 362.16188 
L 246.913946 360.572295 
L 249.207225 366.579801 
L 251.500505 367.709874 
L 253.793784 365.988027 
L 256.087063 360.814304 
L 258.380342 365.036553 
L 260.673622 358.669289 
L 262.966901 360.245253 
L 265.26018 363.889825 
L 267.553459 361.382315 
L 269.846739 372.575887 
L 272.140018 376.098398 
L 274.433297 377.254406 
L 276.726577 366.883406 
L 279.019856 367.675255 
L 281.313135 373.936281 
L 283.606414 367.068936 
L 285.899694 376.026453 
L 288.192973 367.237722 
L 290.486252 375.312379 
L 292.779532 378.105679 
L 295.072811 370.692065 
L 297.36609 375.782004 
L 299.659369 379.282685 
L 301.952649 370.618216 
L 304.245928 372.740657 
L 306.539207 374.505422 
L 308.832486 377.236085 
L 311.125766 379.472022 
L 313.419045 373.65873 
L 315.712324 369.365903 
L 318.005604 378.065884 
L 320.298883 378.293261 
L 322.592162 379.72572 
L 324.885441 380.624996 
L 327.178721 378.52037 
L 329.472 380.992398 
" clip-path="url(#pb30fc8181f)" style="fill: none; stroke: #7801a8; stroke-width: 1.5; stroke-linecap: square"/>
   </g>
   <g id="line2d_27">
    <path d="M 74.918 30.643273 
L 77.211279 142.798872 
L 79.504559 162.033285 
L 81.797838 178.961942 
L 84.091117 188.617144 
L 86.384396 192.860049 
L 88.677676 197.306388 
L 90.970955 206.610992 
L 93.264234 204.781836 
L 95.557514 215.911076 
L 97.850793 223.554982 
L 100.144072 222.861757 
L 102.437351 216.78171 
L 104.730631 223.832682 
L 107.02391 227.583819 
L 109.317189 224.417407 
L 111.610468 231.352594 
L 113.903748 242.608861 
L 116.197027 234.207816 
L 118.490306 234.001853 
L 120.783586 243.23475 
L 123.076865 241.350303 
L 125.370144 241.396225 
L 127.663423 247.657935 
L 129.956703 247.938966 
L 132.249982 241.858652 
L 134.543261 242.732469 
L 136.836541 251.278625 
L 139.12982 247.513776 
L 141.423099 244.479418 
L 143.716378 241.324249 
L 146.009658 247.268376 
L 148.302937 245.84478 
L 150.596216 250.900546 
L 152.889495 251.136577 
L 155.182775 252.687677 
L 157.476054 254.439623 
L 159.769333 258.473309 
L 162.062613 260.923982 
L 164.355892 257.8302 
L 166.649171 252.082459 
L 168.94245 260.554825 
L 171.23573 258.831699 
L 173.529009 261.291473 
L 175.822288 258.948079 
L 178.115568 268.453352 
L 180.408847 261.21578 
L 182.702126 260.544951 
L 184.995405 259.12537 
L 187.288685 264.511777 
L 189.581964 269.91811 
L 191.875243 271.91055 
L 194.168523 271.289212 
L 196.461802 273.152393 
L 198.755081 273.405497 
L 201.04836 277.830377 
L 203.34164 281.657758 
L 205.634919 276.420165 
L 207.928198 276.688586 
L 210.221477 276.213162 
L 212.514757 279.104788 
L 214.808036 280.817312 
L 217.101315 280.32776 
L 219.394595 282.27746 
L 221.687874 287.900464 
L 223.981153 286.843496 
L 226.274432 289.031132 
L 228.567712 287.201886 
L 230.860991 284.700354 
L 233.15427 285.03275 
L 235.44755 288.324524 
L 237.740829 289.588733 
L 240.034108 284.57532 
L 242.327387 293.905353 
L 244.620667 289.223205 
L 246.913946 288.916447 
L 249.207225 293.205348 
L 251.500505 296.578495 
L 253.793784 292.267467 
L 256.087063 294.858343 
L 258.380342 295.47983 
L 260.673622 290.573725 
L 262.966901 290.663427 
L 265.26018 295.530212 
L 267.553459 293.076803 
L 269.846739 303.018985 
L 272.140018 303.911301 
L 274.433297 305.751551 
L 276.726577 297.109983 
L 279.019856 300.81975 
L 281.313135 302.599802 
L 283.606414 299.95319 
L 285.899694 306.563862 
L 288.192973 301.449029 
L 290.486252 302.746132 
L 292.779532 302.221485 
L 295.072811 302.290903 
L 297.36609 306.148427 
L 299.659369 307.021768 
L 301.952649 303.937712 
L 304.245928 303.119929 
L 306.539207 306.844328 
L 308.832486 311.486087 
L 311.125766 309.160151 
L 313.419045 305.237968 
L 315.712324 300.405921 
L 318.005604 307.491393 
L 320.298883 310.065316 
L 322.592162 306.619003 
L 324.885441 310.705897 
L 327.178721 306.763847 
L 329.472 311.659066 
" clip-path="url(#pb30fc8181f)" style="fill: none; stroke: #6100a7; stroke-width: 1.5; stroke-linecap: square"/>
   </g>
   <g id="line2d_28">
    <path d="M 74.918 30.643273 
L 77.211279 145.366861 
L 79.504559 172.347359 
L 81.797838 196.957367 
L 84.091117 209.766072 
L 86.384396 214.217661 
L 88.677676 218.666098 
L 90.970955 228.32008 
L 93.264234 225.669066 
L 95.557514 242.686726 
L 97.850793 255.96339 
L 100.144072 254.539616 
L 102.437351 245.653182 
L 104.730631 256.689687 
L 107.02391 258.077043 
L 109.317189 252.895811 
L 111.610468 265.373236 
L 113.903748 275.706955 
L 116.197027 269.236828 
L 118.490306 270.712502 
L 120.783586 281.252793 
L 123.076865 274.639354 
L 125.370144 275.892841 
L 127.663423 289.865362 
L 129.956703 288.043374 
L 132.249982 278.432264 
L 134.543261 283.437781 
L 136.836541 293.56576 
L 139.12982 290.390842 
L 141.423099 283.84123 
L 143.716378 281.478623 
L 146.009658 285.728651 
L 148.302937 287.096778 
L 150.596216 294.911522 
L 152.889495 294.901528 
L 155.182775 298.941073 
L 157.476054 302.041517 
L 159.769333 303.568555 
L 162.062613 306.483321 
L 164.355892 304.739226 
L 166.649171 297.129524 
L 168.94245 309.863428 
L 171.23573 310.09366 
L 173.529009 310.794826 
L 175.822288 309.0013 
L 178.115568 318.739035 
L 180.408847 311.360427 
L 182.702126 312.994417 
L 184.995405 314.504384 
L 187.288685 320.003601 
L 189.581964 326.509285 
L 191.875243 327.553255 
L 194.168523 327.248698 
L 196.461802 332.052996 
L 198.755081 332.150728 
L 201.04836 335.351997 
L 203.34164 344.750378 
L 205.634919 339.600003 
L 207.928198 336.494889 
L 210.221477 338.039624 
L 212.514757 341.743026 
L 214.808036 343.607278 
L 217.101315 348.178816 
L 219.394595 346.578791 
L 221.687874 350.830038 
L 223.981153 356.254157 
L 226.274432 352.258095 
L 228.567712 357.978593 
L 230.860991 352.413943 
L 233.15427 355.872539 
L 235.44755 359.342318 
L 237.740829 361.50619 
L 240.034108 354.258149 
L 242.327387 368.155408 
L 244.620667 360.441638 
L 246.913946 367.18258 
L 249.207225 368.606384 
L 251.500505 371.368723 
L 253.793784 371.122014 
L 256.087063 371.557941 
L 258.380342 374.78113 
L 260.673622 368.88346 
L 262.966901 369.591198 
L 265.26018 373.386235 
L 267.553459 374.951967 
L 269.846739 382.387799 
L 272.140018 386.823862 
L 274.433297 387.44172 
L 276.726577 379.718196 
L 279.019856 379.885018 
L 281.313135 383.974916 
L 283.606414 383.814042 
L 285.899694 385.043899 
L 288.192973 385.576814 
L 290.486252 385.031645 
L 292.779532 386.734547 
L 295.072811 388.966885 
L 297.36609 393.039532 
L 299.659369 391.592886 
L 301.952649 388.546364 
L 304.245928 389.708291 
L 306.539207 391.823297 
L 308.832486 394.705168 
L 311.125766 392.94183 
L 313.419045 385.456776 
L 315.712324 385.314788 
L 318.005604 395.99903 
L 320.298883 398.622533 
L 322.592162 391.173318 
L 324.885441 399.20244 
L 327.178721 391.650378 
L 329.472 399.548398 
" clip-path="url(#pb30fc8181f)" style="fill: none; stroke: #4903a0; stroke-width: 1.5; stroke-linecap: square"/>
   </g>
   <g id="patch_3">
    <path d="M 74.918 447.352 
L 74.918 10.8 
" style="fill: none; stroke: #000000; stroke-width: 0.8; stroke-linejoin: miter; stroke-linecap: square"/>
   </g>
   <g id="patch_4">
    <path d="M 329.472 447.352 
L 329.472 10.8 
" style="fill: none; stroke: #000000; stroke-width: 0.8; stroke-linejoin: miter; stroke-linecap: square"/>
   </g>
   <g id="patch_5">
    <path d="M 74.918 447.352 
L 329.472 447.352 
" style="fill: none; stroke: #000000; stroke-width: 0.8; stroke-linejoin: miter; stroke-linecap: square"/>
   </g>
   <g id="patch_6">
    <path d="M 74.918 10.8 
L 329.472 10.8 
" style="fill: none; stroke: #000000; stroke-width: 0.8; stroke-linejoin: miter; stroke-linecap: square"/>
   </g>
  </g>
 </g>
 <defs>
  <clipPath id="pb30fc8181f">
   <rect x="74.918" y="10.8" width="254.554" height="436.552"/>
  </clipPath>
 </defs>
</svg>
