<?xml version="1.0" encoding="utf-8" standalone="no"?>
<!DOCTYPE svg PUBLIC "-//W3C//DTD SVG 1.1//EN"
  "http://www.w3.org/Graphics/SVG/1.1/DTD/svg11.dtd">
<svg xmlns:xlink="http://www.w3.org/1999/xlink" width="360pt" height="504pt" viewBox="0 0 360 504" xmlns="http://www.w3.org/2000/svg" version="1.1">
 <metadata>
  <rdf:RDF xmlns:dc="http://purl.org/dc/elements/1.1/" xmlns:cc="http://creativecommons.org/ns#" xmlns:rdf="http://www.w3.org/1999/02/22-rdf-syntax-ns#">
   <cc:Work>
    <dc:type rdf:resource="http://purl.org/dc/dcmitype/StillImage"/>
    <dc:date>2024-02-19T04:42:08.573258</dc:date>
    <dc:format>image/svg+xml</dc:format>
    <dc:creator>
     <cc:Agent>
      <dc:title>Matplotlib v3.7.4, https://matplotlib.org/</dc:title>
     </cc:Agent>
    </dc:creator>
   </cc:Work>
  </rdf:RDF>
 </metadata>
 <defs>
  <style type="text/css">*{stroke-linejoin: round; stroke-linecap: butt}</style>
 </defs>
 <g id="figure_1">
  <g id="patch_1">
   <path d="M 0 504 
L 360 504 
L 360 0 
L 0 0 
z
" style="fill: #ffffff"/>
  </g>
  <g id="axes_1">
   <g id="patch_2">
    <path d="M 74.918 447.352 
L 329.472 447.352 
L 329.472 10.8 
L 74.918 10.8 
z
" style="fill: #ffffff"/>
   </g>
   <g id="matplotlib.axis_1">
    <g id="xtick_1">
     <g id="line2d_1">
      <defs>
       <path id="m94f42d7b15" d="M 0 0 
L 0 3.5 
" style="stroke: #000000; stroke-width: 0.8"/>
      </defs>
      <g>
       <use xlink:href="#m94f42d7b15" x="74.918" y="447.352" style="stroke: #000000; stroke-width: 0.8"/>
      </g>
     </g>
     <g id="text_1">
      <!-- 0.0π -->
      <g transform="translate(55.186906 468.029188) scale(0.18 -0.18)">
       <defs>
        <path id="DejaVuSans-30" d="M 2034 4250 
Q 1547 4250 1301 3770 
Q 1056 3291 1056 2328 
Q 1056 1369 1301 889 
Q 1547 409 2034 409 
Q 2525 409 2770 889 
Q 3016 1369 3016 2328 
Q 3016 3291 2770 3770 
Q 2525 4250 2034 4250 
z
M 2034 4750 
Q 2819 4750 3233 4129 
Q 3647 3509 3647 2328 
Q 3647 1150 3233 529 
Q 2819 -91 2034 -91 
Q 1250 -91 836 529 
Q 422 1150 422 2328 
Q 422 3509 836 4129 
Q 1250 4750 2034 4750 
z
" transform="scale(0.015625)"/>
        <path id="DejaVuSans-2e" d="M 684 794 
L 1344 794 
L 1344 0 
L 684 0 
L 684 794 
z
" transform="scale(0.015625)"/>
        <path id="DejaVuSans-3c0" d="M 231 3500 
L 3584 3500 
L 3584 2925 
L 3144 2925 
L 3144 775 
Q 3144 550 3220 451 
Q 3297 353 3469 353 
Q 3516 353 3584 361 
Q 3653 369 3675 372 
L 3675 -44 
Q 3566 -84 3450 -103 
Q 3334 -122 3219 -122 
Q 2844 -122 2700 83 
Q 2556 288 2556 838 
L 2556 2925 
L 1266 2925 
L 1266 0 
L 678 0 
L 678 2925 
L 231 2925 
L 231 3500 
z
" transform="scale(0.015625)"/>
       </defs>
       <use xlink:href="#DejaVuSans-30"/>
       <use xlink:href="#DejaVuSans-2e" x="63.623047"/>
       <use xlink:href="#DejaVuSans-30" x="95.410156"/>
       <use xlink:href="#DejaVuSans-3c0" x="159.033203"/>
      </g>
     </g>
    </g>
    <g id="xtick_2">
     <g id="line2d_2">
      <g>
       <use xlink:href="#m94f42d7b15" x="138.5565" y="447.352" style="stroke: #000000; stroke-width: 0.8"/>
      </g>
     </g>
     <g id="text_2">
      <!-- 0.2π -->
      <g transform="translate(118.825406 468.029188) scale(0.18 -0.18)">
       <defs>
        <path id="DejaVuSans-32" d="M 1228 531 
L 3431 531 
L 3431 0 
L 469 0 
L 469 531 
Q 828 903 1448 1529 
Q 2069 2156 2228 2338 
Q 2531 2678 2651 2914 
Q 2772 3150 2772 3378 
Q 2772 3750 2511 3984 
Q 2250 4219 1831 4219 
Q 1534 4219 1204 4116 
Q 875 4013 500 3803 
L 500 4441 
Q 881 4594 1212 4672 
Q 1544 4750 1819 4750 
Q 2544 4750 2975 4387 
Q 3406 4025 3406 3419 
Q 3406 3131 3298 2873 
Q 3191 2616 2906 2266 
Q 2828 2175 2409 1742 
Q 1991 1309 1228 531 
z
" transform="scale(0.015625)"/>
       </defs>
       <use xlink:href="#DejaVuSans-30"/>
       <use xlink:href="#DejaVuSans-2e" x="63.623047"/>
       <use xlink:href="#DejaVuSans-32" x="95.410156"/>
       <use xlink:href="#DejaVuSans-3c0" x="159.033203"/>
      </g>
     </g>
    </g>
    <g id="xtick_3">
     <g id="line2d_3">
      <g>
       <use xlink:href="#m94f42d7b15" x="202.195" y="447.352" style="stroke: #000000; stroke-width: 0.8"/>
      </g>
     </g>
     <g id="text_3">
      <!-- 0.5π -->
      <g transform="translate(182.463906 468.029188) scale(0.18 -0.18)">
       <defs>
        <path id="DejaVuSans-35" d="M 691 4666 
L 3169 4666 
L 3169 4134 
L 1269 4134 
L 1269 2991 
Q 1406 3038 1543 3061 
Q 1681 3084 1819 3084 
Q 2600 3084 3056 2656 
Q 3513 2228 3513 1497 
Q 3513 744 3044 326 
Q 2575 -91 1722 -91 
Q 1428 -91 1123 -41 
Q 819 9 494 109 
L 494 744 
Q 775 591 1075 516 
Q 1375 441 1709 441 
Q 2250 441 2565 725 
Q 2881 1009 2881 1497 
Q 2881 1984 2565 2268 
Q 2250 2553 1709 2553 
Q 1456 2553 1204 2497 
Q 953 2441 691 2322 
L 691 4666 
z
" transform="scale(0.015625)"/>
       </defs>
       <use xlink:href="#DejaVuSans-30"/>
       <use xlink:href="#DejaVuSans-2e" x="63.623047"/>
       <use xlink:href="#DejaVuSans-35" x="95.410156"/>
       <use xlink:href="#DejaVuSans-3c0" x="159.033203"/>
      </g>
     </g>
    </g>
    <g id="xtick_4">
     <g id="line2d_4">
      <g>
       <use xlink:href="#m94f42d7b15" x="265.8335" y="447.352" style="stroke: #000000; stroke-width: 0.8"/>
      </g>
     </g>
     <g id="text_4">
      <!-- 0.8π -->
      <g transform="translate(246.102406 468.029188) scale(0.18 -0.18)">
       <defs>
        <path id="DejaVuSans-38" d="M 2034 2216 
Q 1584 2216 1326 1975 
Q 1069 1734 1069 1313 
Q 1069 891 1326 650 
Q 1584 409 2034 409 
Q 2484 409 2743 651 
Q 3003 894 3003 1313 
Q 3003 1734 2745 1975 
Q 2488 2216 2034 2216 
z
M 1403 2484 
Q 997 2584 770 2862 
Q 544 3141 544 3541 
Q 544 4100 942 4425 
Q 1341 4750 2034 4750 
Q 2731 4750 3128 4425 
Q 3525 4100 3525 3541 
Q 3525 3141 3298 2862 
Q 3072 2584 2669 2484 
Q 3125 2378 3379 2068 
Q 3634 1759 3634 1313 
Q 3634 634 3220 271 
Q 2806 -91 2034 -91 
Q 1263 -91 848 271 
Q 434 634 434 1313 
Q 434 1759 690 2068 
Q 947 2378 1403 2484 
z
M 1172 3481 
Q 1172 3119 1398 2916 
Q 1625 2713 2034 2713 
Q 2441 2713 2670 2916 
Q 2900 3119 2900 3481 
Q 2900 3844 2670 4047 
Q 2441 4250 2034 4250 
Q 1625 4250 1398 4047 
Q 1172 3844 1172 3481 
z
" transform="scale(0.015625)"/>
       </defs>
       <use xlink:href="#DejaVuSans-30"/>
       <use xlink:href="#DejaVuSans-2e" x="63.623047"/>
       <use xlink:href="#DejaVuSans-38" x="95.410156"/>
       <use xlink:href="#DejaVuSans-3c0" x="159.033203"/>
      </g>
     </g>
    </g>
    <g id="xtick_5">
     <g id="line2d_5">
      <g>
       <use xlink:href="#m94f42d7b15" x="329.472" y="447.352" style="stroke: #000000; stroke-width: 0.8"/>
      </g>
     </g>
     <g id="text_5">
      <!-- 1.0π -->
      <g transform="translate(309.740906 468.029188) scale(0.18 -0.18)">
       <defs>
        <path id="DejaVuSans-31" d="M 794 531 
L 1825 531 
L 1825 4091 
L 703 3866 
L 703 4441 
L 1819 4666 
L 2450 4666 
L 2450 531 
L 3481 531 
L 3481 0 
L 794 0 
L 794 531 
z
" transform="scale(0.015625)"/>
       </defs>
       <use xlink:href="#DejaVuSans-31"/>
       <use xlink:href="#DejaVuSans-2e" x="63.623047"/>
       <use xlink:href="#DejaVuSans-30" x="95.410156"/>
       <use xlink:href="#DejaVuSans-3c0" x="159.033203"/>
      </g>
     </g>
    </g>
    <g id="text_6">
     <!-- Frequency -->
     <g transform="translate(155.701562 489.449813) scale(0.18 -0.18)">
      <defs>
       <path id="DejaVuSans-46" d="M 628 4666 
L 3309 4666 
L 3309 4134 
L 1259 4134 
L 1259 2759 
L 3109 2759 
L 3109 2228 
L 1259 2228 
L 1259 0 
L 628 0 
L 628 4666 
z
" transform="scale(0.015625)"/>
       <path id="DejaVuSans-72" d="M 2631 2963 
Q 2534 3019 2420 3045 
Q 2306 3072 2169 3072 
Q 1681 3072 1420 2755 
Q 1159 2438 1159 1844 
L 1159 0 
L 581 0 
L 581 3500 
L 1159 3500 
L 1159 2956 
Q 1341 3275 1631 3429 
Q 1922 3584 2338 3584 
Q 2397 3584 2469 3576 
Q 2541 3569 2628 3553 
L 2631 2963 
z
" transform="scale(0.015625)"/>
       <path id="DejaVuSans-65" d="M 3597 1894 
L 3597 1613 
L 953 1613 
Q 991 1019 1311 708 
Q 1631 397 2203 397 
Q 2534 397 2845 478 
Q 3156 559 3463 722 
L 3463 178 
Q 3153 47 2828 -22 
Q 2503 -91 2169 -91 
Q 1331 -91 842 396 
Q 353 884 353 1716 
Q 353 2575 817 3079 
Q 1281 3584 2069 3584 
Q 2775 3584 3186 3129 
Q 3597 2675 3597 1894 
z
M 3022 2063 
Q 3016 2534 2758 2815 
Q 2500 3097 2075 3097 
Q 1594 3097 1305 2825 
Q 1016 2553 972 2059 
L 3022 2063 
z
" transform="scale(0.015625)"/>
       <path id="DejaVuSans-71" d="M 947 1747 
Q 947 1113 1208 752 
Q 1469 391 1925 391 
Q 2381 391 2643 752 
Q 2906 1113 2906 1747 
Q 2906 2381 2643 2742 
Q 2381 3103 1925 3103 
Q 1469 3103 1208 2742 
Q 947 2381 947 1747 
z
M 2906 525 
Q 2725 213 2448 61 
Q 2172 -91 1784 -91 
Q 1150 -91 751 415 
Q 353 922 353 1747 
Q 353 2572 751 3078 
Q 1150 3584 1784 3584 
Q 2172 3584 2448 3432 
Q 2725 3281 2906 2969 
L 2906 3500 
L 3481 3500 
L 3481 -1331 
L 2906 -1331 
L 2906 525 
z
" transform="scale(0.015625)"/>
       <path id="DejaVuSans-75" d="M 544 1381 
L 544 3500 
L 1119 3500 
L 1119 1403 
Q 1119 906 1312 657 
Q 1506 409 1894 409 
Q 2359 409 2629 706 
Q 2900 1003 2900 1516 
L 2900 3500 
L 3475 3500 
L 3475 0 
L 2900 0 
L 2900 538 
Q 2691 219 2414 64 
Q 2138 -91 1772 -91 
Q 1169 -91 856 284 
Q 544 659 544 1381 
z
M 1991 3584 
L 1991 3584 
z
" transform="scale(0.015625)"/>
       <path id="DejaVuSans-6e" d="M 3513 2113 
L 3513 0 
L 2938 0 
L 2938 2094 
Q 2938 2591 2744 2837 
Q 2550 3084 2163 3084 
Q 1697 3084 1428 2787 
Q 1159 2491 1159 1978 
L 1159 0 
L 581 0 
L 581 3500 
L 1159 3500 
L 1159 2956 
Q 1366 3272 1645 3428 
Q 1925 3584 2291 3584 
Q 2894 3584 3203 3211 
Q 3513 2838 3513 2113 
z
" transform="scale(0.015625)"/>
       <path id="DejaVuSans-63" d="M 3122 3366 
L 3122 2828 
Q 2878 2963 2633 3030 
Q 2388 3097 2138 3097 
Q 1578 3097 1268 2742 
Q 959 2388 959 1747 
Q 959 1106 1268 751 
Q 1578 397 2138 397 
Q 2388 397 2633 464 
Q 2878 531 3122 666 
L 3122 134 
Q 2881 22 2623 -34 
Q 2366 -91 2075 -91 
Q 1284 -91 818 406 
Q 353 903 353 1747 
Q 353 2603 823 3093 
Q 1294 3584 2113 3584 
Q 2378 3584 2631 3529 
Q 2884 3475 3122 3366 
z
" transform="scale(0.015625)"/>
       <path id="DejaVuSans-79" d="M 2059 -325 
Q 1816 -950 1584 -1140 
Q 1353 -1331 966 -1331 
L 506 -1331 
L 506 -850 
L 844 -850 
Q 1081 -850 1212 -737 
Q 1344 -625 1503 -206 
L 1606 56 
L 191 3500 
L 800 3500 
L 1894 763 
L 2988 3500 
L 3597 3500 
L 2059 -325 
z
" transform="scale(0.015625)"/>
      </defs>
      <use xlink:href="#DejaVuSans-46"/>
      <use xlink:href="#DejaVuSans-72" x="50.269531"/>
      <use xlink:href="#DejaVuSans-65" x="89.132812"/>
      <use xlink:href="#DejaVuSans-71" x="150.65625"/>
      <use xlink:href="#DejaVuSans-75" x="214.132812"/>
      <use xlink:href="#DejaVuSans-65" x="277.511719"/>
      <use xlink:href="#DejaVuSans-6e" x="339.035156"/>
      <use xlink:href="#DejaVuSans-63" x="402.414062"/>
      <use xlink:href="#DejaVuSans-79" x="457.394531"/>
     </g>
    </g>
   </g>
   <g id="matplotlib.axis_2">
    <g id="ytick_1">
     <g id="line2d_6">
      <defs>
       <path id="m613f56a4b6" d="M 0 0 
L -3.5 0 
" style="stroke: #000000; stroke-width: 0.8"/>
      </defs>
      <g>
       <use xlink:href="#m613f56a4b6" x="74.918" y="446.024742" style="stroke: #000000; stroke-width: 0.8"/>
      </g>
     </g>
     <g id="text_7">
      <!-- -4.0 -->
      <g transform="translate(32.798313 452.863336) scale(0.18 -0.18)">
       <defs>
        <path id="DejaVuSans-2d" d="M 313 2009 
L 1997 2009 
L 1997 1497 
L 313 1497 
L 313 2009 
z
" transform="scale(0.015625)"/>
        <path id="DejaVuSans-34" d="M 2419 4116 
L 825 1625 
L 2419 1625 
L 2419 4116 
z
M 2253 4666 
L 3047 4666 
L 3047 1625 
L 3713 1625 
L 3713 1100 
L 3047 1100 
L 3047 0 
L 2419 0 
L 2419 1100 
L 313 1100 
L 313 1709 
L 2253 4666 
z
" transform="scale(0.015625)"/>
       </defs>
       <use xlink:href="#DejaVuSans-2d"/>
       <use xlink:href="#DejaVuSans-34" x="36.083984"/>
       <use xlink:href="#DejaVuSans-2e" x="99.707031"/>
       <use xlink:href="#DejaVuSans-30" x="131.494141"/>
      </g>
     </g>
    </g>
    <g id="ytick_2">
     <g id="line2d_7">
      <g>
       <use xlink:href="#m613f56a4b6" x="74.918" y="394.102059" style="stroke: #000000; stroke-width: 0.8"/>
      </g>
     </g>
     <g id="text_8">
      <!-- -3.5 -->
      <g transform="translate(32.798313 400.940652) scale(0.18 -0.18)">
       <defs>
        <path id="DejaVuSans-33" d="M 2597 2516 
Q 3050 2419 3304 2112 
Q 3559 1806 3559 1356 
Q 3559 666 3084 287 
Q 2609 -91 1734 -91 
Q 1441 -91 1130 -33 
Q 819 25 488 141 
L 488 750 
Q 750 597 1062 519 
Q 1375 441 1716 441 
Q 2309 441 2620 675 
Q 2931 909 2931 1356 
Q 2931 1769 2642 2001 
Q 2353 2234 1838 2234 
L 1294 2234 
L 1294 2753 
L 1863 2753 
Q 2328 2753 2575 2939 
Q 2822 3125 2822 3475 
Q 2822 3834 2567 4026 
Q 2313 4219 1838 4219 
Q 1578 4219 1281 4162 
Q 984 4106 628 3988 
L 628 4550 
Q 988 4650 1302 4700 
Q 1616 4750 1894 4750 
Q 2613 4750 3031 4423 
Q 3450 4097 3450 3541 
Q 3450 3153 3228 2886 
Q 3006 2619 2597 2516 
z
" transform="scale(0.015625)"/>
       </defs>
       <use xlink:href="#DejaVuSans-2d"/>
       <use xlink:href="#DejaVuSans-33" x="36.083984"/>
       <use xlink:href="#DejaVuSans-2e" x="99.707031"/>
       <use xlink:href="#DejaVuSans-35" x="131.494141"/>
      </g>
     </g>
    </g>
    <g id="ytick_3">
     <g id="line2d_8">
      <g>
       <use xlink:href="#m613f56a4b6" x="74.918" y="342.179375" style="stroke: #000000; stroke-width: 0.8"/>
      </g>
     </g>
     <g id="text_9">
      <!-- -3.0 -->
      <g transform="translate(32.798313 349.017969) scale(0.18 -0.18)">
       <use xlink:href="#DejaVuSans-2d"/>
       <use xlink:href="#DejaVuSans-33" x="36.083984"/>
       <use xlink:href="#DejaVuSans-2e" x="99.707031"/>
       <use xlink:href="#DejaVuSans-30" x="131.494141"/>
      </g>
     </g>
    </g>
    <g id="ytick_4">
     <g id="line2d_9">
      <g>
       <use xlink:href="#m613f56a4b6" x="74.918" y="290.256691" style="stroke: #000000; stroke-width: 0.8"/>
      </g>
     </g>
     <g id="text_10">
      <!-- -2.5 -->
      <g transform="translate(32.798313 297.095285) scale(0.18 -0.18)">
       <use xlink:href="#DejaVuSans-2d"/>
       <use xlink:href="#DejaVuSans-32" x="36.083984"/>
       <use xlink:href="#DejaVuSans-2e" x="99.707031"/>
       <use xlink:href="#DejaVuSans-35" x="131.494141"/>
      </g>
     </g>
    </g>
    <g id="ytick_5">
     <g id="line2d_10">
      <g>
       <use xlink:href="#m613f56a4b6" x="74.918" y="238.334008" style="stroke: #000000; stroke-width: 0.8"/>
      </g>
     </g>
     <g id="text_11">
      <!-- -2.0 -->
      <g transform="translate(32.798313 245.172601) scale(0.18 -0.18)">
       <use xlink:href="#DejaVuSans-2d"/>
       <use xlink:href="#DejaVuSans-32" x="36.083984"/>
       <use xlink:href="#DejaVuSans-2e" x="99.707031"/>
       <use xlink:href="#DejaVuSans-30" x="131.494141"/>
      </g>
     </g>
    </g>
    <g id="ytick_6">
     <g id="line2d_11">
      <g>
       <use xlink:href="#m613f56a4b6" x="74.918" y="186.411324" style="stroke: #000000; stroke-width: 0.8"/>
      </g>
     </g>
     <g id="text_12">
      <!-- -1.5 -->
      <g transform="translate(32.798313 193.249918) scale(0.18 -0.18)">
       <use xlink:href="#DejaVuSans-2d"/>
       <use xlink:href="#DejaVuSans-31" x="36.083984"/>
       <use xlink:href="#DejaVuSans-2e" x="99.707031"/>
       <use xlink:href="#DejaVuSans-35" x="131.494141"/>
      </g>
     </g>
    </g>
    <g id="ytick_7">
     <g id="line2d_12">
      <g>
       <use xlink:href="#m613f56a4b6" x="74.918" y="134.48864" style="stroke: #000000; stroke-width: 0.8"/>
      </g>
     </g>
     <g id="text_13">
      <!-- -1.0 -->
      <g transform="translate(32.798313 141.327234) scale(0.18 -0.18)">
       <use xlink:href="#DejaVuSans-2d"/>
       <use xlink:href="#DejaVuSans-31" x="36.083984"/>
       <use xlink:href="#DejaVuSans-2e" x="99.707031"/>
       <use xlink:href="#DejaVuSans-30" x="131.494141"/>
      </g>
     </g>
    </g>
    <g id="ytick_8">
     <g id="line2d_13">
      <g>
       <use xlink:href="#m613f56a4b6" x="74.918" y="82.565956" style="stroke: #000000; stroke-width: 0.8"/>
      </g>
     </g>
     <g id="text_14">
      <!-- -0.5 -->
      <g transform="translate(32.798313 89.40455) scale(0.18 -0.18)">
       <use xlink:href="#DejaVuSans-2d"/>
       <use xlink:href="#DejaVuSans-30" x="36.083984"/>
       <use xlink:href="#DejaVuSans-2e" x="99.707031"/>
       <use xlink:href="#DejaVuSans-35" x="131.494141"/>
      </g>
     </g>
    </g>
    <g id="ytick_9">
     <g id="line2d_14">
      <g>
       <use xlink:href="#m613f56a4b6" x="74.918" y="30.643273" style="stroke: #000000; stroke-width: 0.8"/>
      </g>
     </g>
     <g id="text_15">
      <!-- 0.0 -->
      <g transform="translate(39.292375 37.481866) scale(0.18 -0.18)">
       <use xlink:href="#DejaVuSans-30"/>
       <use xlink:href="#DejaVuSans-2e" x="63.623047"/>
       <use xlink:href="#DejaVuSans-30" x="95.410156"/>
      </g>
     </g>
    </g>
    <g id="text_16">
     <!-- $\Delta$ Log amplitude -->
     <g transform="translate(25.018313 302.696) rotate(-90) scale(0.18 -0.18)">
      <defs>
       <path id="DejaVuSans-394" d="M 2188 4044 
L 906 525 
L 3472 525 
L 2188 4044 
z
M 50 0 
L 1831 4666 
L 2547 4666 
L 4325 0 
L 50 0 
z
" transform="scale(0.015625)"/>
       <path id="DejaVuSans-20" transform="scale(0.015625)"/>
       <path id="DejaVuSans-4c" d="M 628 4666 
L 1259 4666 
L 1259 531 
L 3531 531 
L 3531 0 
L 628 0 
L 628 4666 
z
" transform="scale(0.015625)"/>
       <path id="DejaVuSans-6f" d="M 1959 3097 
Q 1497 3097 1228 2736 
Q 959 2375 959 1747 
Q 959 1119 1226 758 
Q 1494 397 1959 397 
Q 2419 397 2687 759 
Q 2956 1122 2956 1747 
Q 2956 2369 2687 2733 
Q 2419 3097 1959 3097 
z
M 1959 3584 
Q 2709 3584 3137 3096 
Q 3566 2609 3566 1747 
Q 3566 888 3137 398 
Q 2709 -91 1959 -91 
Q 1206 -91 779 398 
Q 353 888 353 1747 
Q 353 2609 779 3096 
Q 1206 3584 1959 3584 
z
" transform="scale(0.015625)"/>
       <path id="DejaVuSans-67" d="M 2906 1791 
Q 2906 2416 2648 2759 
Q 2391 3103 1925 3103 
Q 1463 3103 1205 2759 
Q 947 2416 947 1791 
Q 947 1169 1205 825 
Q 1463 481 1925 481 
Q 2391 481 2648 825 
Q 2906 1169 2906 1791 
z
M 3481 434 
Q 3481 -459 3084 -895 
Q 2688 -1331 1869 -1331 
Q 1566 -1331 1297 -1286 
Q 1028 -1241 775 -1147 
L 775 -588 
Q 1028 -725 1275 -790 
Q 1522 -856 1778 -856 
Q 2344 -856 2625 -561 
Q 2906 -266 2906 331 
L 2906 616 
Q 2728 306 2450 153 
Q 2172 0 1784 0 
Q 1141 0 747 490 
Q 353 981 353 1791 
Q 353 2603 747 3093 
Q 1141 3584 1784 3584 
Q 2172 3584 2450 3431 
Q 2728 3278 2906 2969 
L 2906 3500 
L 3481 3500 
L 3481 434 
z
" transform="scale(0.015625)"/>
       <path id="DejaVuSans-61" d="M 2194 1759 
Q 1497 1759 1228 1600 
Q 959 1441 959 1056 
Q 959 750 1161 570 
Q 1363 391 1709 391 
Q 2188 391 2477 730 
Q 2766 1069 2766 1631 
L 2766 1759 
L 2194 1759 
z
M 3341 1997 
L 3341 0 
L 2766 0 
L 2766 531 
Q 2569 213 2275 61 
Q 1981 -91 1556 -91 
Q 1019 -91 701 211 
Q 384 513 384 1019 
Q 384 1609 779 1909 
Q 1175 2209 1959 2209 
L 2766 2209 
L 2766 2266 
Q 2766 2663 2505 2880 
Q 2244 3097 1772 3097 
Q 1472 3097 1187 3025 
Q 903 2953 641 2809 
L 641 3341 
Q 956 3463 1253 3523 
Q 1550 3584 1831 3584 
Q 2591 3584 2966 3190 
Q 3341 2797 3341 1997 
z
" transform="scale(0.015625)"/>
       <path id="DejaVuSans-6d" d="M 3328 2828 
Q 3544 3216 3844 3400 
Q 4144 3584 4550 3584 
Q 5097 3584 5394 3201 
Q 5691 2819 5691 2113 
L 5691 0 
L 5113 0 
L 5113 2094 
Q 5113 2597 4934 2840 
Q 4756 3084 4391 3084 
Q 3944 3084 3684 2787 
Q 3425 2491 3425 1978 
L 3425 0 
L 2847 0 
L 2847 2094 
Q 2847 2600 2669 2842 
Q 2491 3084 2119 3084 
Q 1678 3084 1418 2786 
Q 1159 2488 1159 1978 
L 1159 0 
L 581 0 
L 581 3500 
L 1159 3500 
L 1159 2956 
Q 1356 3278 1631 3431 
Q 1906 3584 2284 3584 
Q 2666 3584 2933 3390 
Q 3200 3197 3328 2828 
z
" transform="scale(0.015625)"/>
       <path id="DejaVuSans-70" d="M 1159 525 
L 1159 -1331 
L 581 -1331 
L 581 3500 
L 1159 3500 
L 1159 2969 
Q 1341 3281 1617 3432 
Q 1894 3584 2278 3584 
Q 2916 3584 3314 3078 
Q 3713 2572 3713 1747 
Q 3713 922 3314 415 
Q 2916 -91 2278 -91 
Q 1894 -91 1617 61 
Q 1341 213 1159 525 
z
M 3116 1747 
Q 3116 2381 2855 2742 
Q 2594 3103 2138 3103 
Q 1681 3103 1420 2742 
Q 1159 2381 1159 1747 
Q 1159 1113 1420 752 
Q 1681 391 2138 391 
Q 2594 391 2855 752 
Q 3116 1113 3116 1747 
z
" transform="scale(0.015625)"/>
       <path id="DejaVuSans-6c" d="M 603 4863 
L 1178 4863 
L 1178 0 
L 603 0 
L 603 4863 
z
" transform="scale(0.015625)"/>
       <path id="DejaVuSans-69" d="M 603 3500 
L 1178 3500 
L 1178 0 
L 603 0 
L 603 3500 
z
M 603 4863 
L 1178 4863 
L 1178 4134 
L 603 4134 
L 603 4863 
z
" transform="scale(0.015625)"/>
       <path id="DejaVuSans-74" d="M 1172 4494 
L 1172 3500 
L 2356 3500 
L 2356 3053 
L 1172 3053 
L 1172 1153 
Q 1172 725 1289 603 
Q 1406 481 1766 481 
L 2356 481 
L 2356 0 
L 1766 0 
Q 1100 0 847 248 
Q 594 497 594 1153 
L 594 3053 
L 172 3053 
L 172 3500 
L 594 3500 
L 594 4494 
L 1172 4494 
z
" transform="scale(0.015625)"/>
       <path id="DejaVuSans-64" d="M 2906 2969 
L 2906 4863 
L 3481 4863 
L 3481 0 
L 2906 0 
L 2906 525 
Q 2725 213 2448 61 
Q 2172 -91 1784 -91 
Q 1150 -91 751 415 
Q 353 922 353 1747 
Q 353 2572 751 3078 
Q 1150 3584 1784 3584 
Q 2172 3584 2448 3432 
Q 2725 3281 2906 2969 
z
M 947 1747 
Q 947 1113 1208 752 
Q 1469 391 1925 391 
Q 2381 391 2643 752 
Q 2906 1113 2906 1747 
Q 2906 2381 2643 2742 
Q 2381 3103 1925 3103 
Q 1469 3103 1208 2742 
Q 947 2381 947 1747 
z
" transform="scale(0.015625)"/>
      </defs>
      <use xlink:href="#DejaVuSans-394" transform="translate(0 0.015625)"/>
      <use xlink:href="#DejaVuSans-20" transform="translate(68.408203 0.015625)"/>
      <use xlink:href="#DejaVuSans-4c" transform="translate(100.195312 0.015625)"/>
      <use xlink:href="#DejaVuSans-6f" transform="translate(155.908203 0.015625)"/>
      <use xlink:href="#DejaVuSans-67" transform="translate(217.089844 0.015625)"/>
      <use xlink:href="#DejaVuSans-20" transform="translate(280.566406 0.015625)"/>
      <use xlink:href="#DejaVuSans-61" transform="translate(312.353516 0.015625)"/>
      <use xlink:href="#DejaVuSans-6d" transform="translate(373.632812 0.015625)"/>
      <use xlink:href="#DejaVuSans-70" transform="translate(471.044922 0.015625)"/>
      <use xlink:href="#DejaVuSans-6c" transform="translate(534.521484 0.015625)"/>
      <use xlink:href="#DejaVuSans-69" transform="translate(562.304688 0.015625)"/>
      <use xlink:href="#DejaVuSans-74" transform="translate(590.087891 0.015625)"/>
      <use xlink:href="#DejaVuSans-75" transform="translate(629.296875 0.015625)"/>
      <use xlink:href="#DejaVuSans-64" transform="translate(692.675781 0.015625)"/>
      <use xlink:href="#DejaVuSans-65" transform="translate(756.152344 0.015625)"/>
     </g>
    </g>
   </g>
   <g id="line2d_15">
    <path d="M 74.918 30.643273 
L 329.472 168.623597 
" clip-path="url(#pbbc6e0a0cd)" style="fill: none; stroke: #f0f921; stroke-width: 1.5; stroke-linecap: square"/>
   </g>
   <g id="line2d_16">
    <path d="M 74.918 30.643273 
L 329.472 154.851355 
" clip-path="url(#pbbc6e0a0cd)" style="fill: none; stroke: #f8df25; stroke-width: 1.5; stroke-linecap: square"/>
   </g>
   <g id="line2d_17">
    <path d="M 74.918 30.643273 
L 117.343667 120.46558 
L 159.769333 136.436206 
L 202.195 149.4453 
L 244.620667 152.658282 
L 287.046333 160.403485 
L 329.472 159.119105 
" clip-path="url(#pbbc6e0a0cd)" style="fill: none; stroke: #fdc627; stroke-width: 1.5; stroke-linecap: square"/>
   </g>
   <g id="line2d_18">
    <path d="M 74.918 30.643273 
L 117.343667 119.836264 
L 159.769333 135.806891 
L 202.195 148.815984 
L 244.620667 152.028966 
L 287.046333 159.774169 
L 329.472 158.489789 
" clip-path="url(#pbbc6e0a0cd)" style="fill: none; stroke: #fdaf31; stroke-width: 1.5; stroke-linecap: square"/>
   </g>
   <g id="line2d_19">
    <path d="M 74.918 30.643273 
L 117.343667 119.141437 
L 159.769333 135.112063 
L 202.195 148.121157 
L 244.620667 151.334139 
L 287.046333 159.079342 
L 329.472 157.794962 
" clip-path="url(#pbbc6e0a0cd)" style="fill: none; stroke: #f99a3e; stroke-width: 1.5; stroke-linecap: square"/>
   </g>
   <g id="line2d_20">
    <path d="M 74.918 30.643273 
L 117.343667 118.346139 
L 159.769333 134.316766 
L 202.195 147.325859 
L 244.620667 150.538841 
L 287.046333 158.284044 
L 329.472 156.999664 
" clip-path="url(#pbbc6e0a0cd)" style="fill: none; stroke: #f3854b; stroke-width: 1.5; stroke-linecap: square"/>
   </g>
   <g id="line2d_21">
    <path d="M 74.918 30.643273 
L 117.343667 117.359358 
L 159.769333 133.329984 
L 202.195 146.339078 
L 244.620667 149.552059 
L 287.046333 157.297263 
L 329.472 156.012883 
" clip-path="url(#pbbc6e0a0cd)" style="fill: none; stroke: #e97257; stroke-width: 1.5; stroke-linecap: square"/>
   </g>
   <g id="line2d_22">
    <path d="M 74.918 30.643273 
L 117.343667 114.329789 
L 159.769333 130.300415 
L 202.195 143.309509 
L 244.620667 146.52249 
L 287.046333 154.267694 
L 329.472 152.983313 
" clip-path="url(#pbbc6e0a0cd)" style="fill: none; stroke: #de6164; stroke-width: 1.5; stroke-linecap: square"/>
   </g>
   <g id="line2d_23">
    <path d="M 74.918 30.643273 
L 84.345926 169.260353 
L 93.773852 194.405451 
L 103.201778 210.215864 
L 112.629704 222.96165 
L 122.05763 236.051803 
L 131.485556 240.888805 
L 140.913481 248.257132 
L 150.341407 248.369536 
L 159.769333 257.459086 
L 169.197259 269.401676 
L 178.625185 273.455016 
L 188.053111 277.91623 
L 197.481037 285.621325 
L 206.908963 287.496793 
L 216.336889 295.23452 
L 225.764815 301.02884 
L 235.192741 307.71467 
L 244.620667 309.140076 
L 254.048593 311.125671 
L 263.476519 313.086607 
L 272.904444 314.919887 
L 282.33237 315.183715 
L 291.760296 317.780701 
L 301.188222 321.525103 
L 310.616148 322.092769 
L 320.044074 321.437754 
L 329.472 321.125844 
" clip-path="url(#pbbc6e0a0cd)" style="fill: none; stroke: #d24f71; stroke-width: 1.5; stroke-linecap: square"/>
   </g>
   <g id="line2d_24">
    <path d="M 74.918 30.643273 
L 84.345926 175.810406 
L 93.773852 203.499705 
L 103.201778 218.453939 
L 112.629704 232.205693 
L 122.05763 242.872717 
L 131.485556 247.157451 
L 140.913481 253.694135 
L 150.341407 249.182512 
L 159.769333 254.368511 
L 169.197259 268.23891 
L 178.625185 267.897834 
L 188.053111 269.193208 
L 197.481037 275.421448 
L 206.908963 274.555093 
L 216.336889 282.277419 
L 225.764815 287.954532 
L 235.192741 294.607234 
L 244.620667 292.787473 
L 254.048593 294.698297 
L 263.476519 299.25815 
L 272.904444 299.038639 
L 282.33237 297.965797 
L 291.760296 300.850379 
L 301.188222 304.925557 
L 310.616148 304.182747 
L 320.044074 305.261235 
L 329.472 304.972846 
" clip-path="url(#pbbc6e0a0cd)" style="fill: none; stroke: #c43e7f; stroke-width: 1.5; stroke-linecap: square"/>
   </g>
   <g id="line2d_25">
    <path d="M 74.918 30.643273 
L 84.345926 167.181764 
L 93.773852 195.150093 
L 103.201778 214.241549 
L 112.629704 228.992316 
L 122.05763 239.658547 
L 131.485556 245.843707 
L 140.913481 253.004754 
L 150.341407 248.356761 
L 159.769333 256.949107 
L 169.197259 268.00905 
L 178.625185 267.770377 
L 188.053111 266.903774 
L 197.481037 273.496065 
L 206.908963 268.795336 
L 216.336889 275.425558 
L 225.764815 281.970907 
L 235.192741 285.973244 
L 244.620667 282.542585 
L 254.048593 285.705801 
L 263.476519 288.22039 
L 272.904444 289.239853 
L 282.33237 286.094809 
L 291.760296 288.236137 
L 301.188222 292.42461 
L 310.616148 293.501463 
L 320.044074 293.560141 
L 329.472 293.023769 
" clip-path="url(#pbbc6e0a0cd)" style="fill: none; stroke: #b42e8d; stroke-width: 1.5; stroke-linecap: square"/>
   </g>
   <g id="line2d_26">
    <path d="M 74.918 30.643273 
L 84.345926 152.652983 
L 93.773852 177.962033 
L 103.201778 199.906133 
L 112.629704 213.862345 
L 122.05763 223.715997 
L 131.485556 231.249761 
L 140.913481 239.52485 
L 150.341407 236.153116 
L 159.769333 244.031818 
L 169.197259 257.019521 
L 178.625185 255.990996 
L 188.053111 254.848681 
L 197.481037 260.466521 
L 206.908963 259.011405 
L 216.336889 262.770364 
L 225.764815 267.844207 
L 235.192741 270.852385 
L 244.620667 269.765083 
L 254.048593 268.207912 
L 263.476519 274.408125 
L 272.904444 272.28814 
L 282.33237 271.705766 
L 291.760296 271.228469 
L 301.188222 276.159157 
L 310.616148 278.163619 
L 320.044074 277.081912 
L 329.472 275.351034 
" clip-path="url(#pbbc6e0a0cd)" style="fill: none; stroke: #a21d9a; stroke-width: 1.5; stroke-linecap: square"/>
   </g>
   <g id="line2d_27">
    <path d="M 74.918 30.643273 
L 77.211279 182.82008 
L 79.504559 205.268464 
L 81.797838 226.246085 
L 84.091117 238.606947 
L 86.384396 246.136849 
L 88.677676 254.86725 
L 90.970955 256.720535 
L 93.264234 257.72133 
L 95.557514 263.453951 
L 97.850793 275.446801 
L 100.144072 270.75845 
L 102.437351 266.008401 
L 104.730631 281.307127 
L 107.02391 280.257558 
L 109.317189 278.172235 
L 111.610468 287.831134 
L 113.903748 290.470953 
L 116.197027 291.048275 
L 118.490306 287.608703 
L 120.783586 292.311363 
L 123.076865 290.182465 
L 125.370144 293.602231 
L 127.663423 291.501111 
L 129.956703 298.539158 
L 132.249982 297.909099 
L 134.543261 292.080117 
L 136.836541 309.058075 
L 139.12982 297.702662 
L 141.423099 292.022529 
L 143.716378 294.253285 
L 146.009658 300.000365 
L 148.302937 297.451609 
L 150.596216 301.314357 
L 152.889495 299.811852 
L 155.182775 302.444788 
L 157.476054 308.905264 
L 159.769333 307.608901 
L 162.062613 309.879765 
L 164.355892 312.663877 
L 166.649171 303.161799 
L 168.94245 315.730337 
L 171.23573 312.941125 
L 173.529009 311.395441 
L 175.822288 314.498643 
L 178.115568 323.442513 
L 180.408847 313.727113 
L 182.702126 310.989251 
L 184.995405 315.417833 
L 187.288685 315.068043 
L 189.581964 324.502481 
L 191.875243 320.635722 
L 194.168523 326.343881 
L 196.461802 326.084658 
L 198.755081 321.951694 
L 201.04836 330.539336 
L 203.34164 335.449772 
L 205.634919 324.313522 
L 207.928198 332.982719 
L 210.221477 325.224097 
L 212.514757 333.978265 
L 214.808036 332.545283 
L 217.101315 333.704385 
L 219.394595 333.093143 
L 221.687874 338.860278 
L 223.981153 336.285575 
L 226.274432 336.178271 
L 228.567712 343.063111 
L 230.860991 338.663793 
L 233.15427 332.797079 
L 235.44755 337.731382 
L 237.740829 340.49024 
L 240.034108 334.604412 
L 242.327387 342.792548 
L 244.620667 341.369915 
L 246.913946 337.936285 
L 249.207225 342.434191 
L 251.500505 346.760025 
L 253.793784 343.586806 
L 256.087063 338.570502 
L 258.380342 343.388935 
L 260.673622 336.939748 
L 262.966901 340.168328 
L 265.26018 343.544617 
L 267.553459 342.621317 
L 269.846739 347.206226 
L 272.140018 350.571968 
L 274.433297 349.313535 
L 276.726577 342.55744 
L 279.019856 339.493654 
L 281.313135 351.92295 
L 283.606414 350.283134 
L 285.899694 348.821976 
L 288.192973 344.548532 
L 290.486252 352.308343 
L 292.779532 353.432238 
L 295.072811 346.882085 
L 297.36609 349.527103 
L 299.659369 355.699735 
L 301.952649 345.766361 
L 304.245928 352.5744 
L 306.539207 351.983262 
L 308.832486 351.138546 
L 311.125766 352.271254 
L 313.419045 353.167964 
L 315.712324 352.218073 
L 318.005604 353.49874 
L 320.298883 359.24582 
L 322.592162 350.865656 
L 324.885441 362.854742 
L 327.178721 351.232084 
L 329.472 359.816804 
" clip-path="url(#pbbc6e0a0cd)" style="fill: none; stroke: #8e0ca4; stroke-width: 1.5; stroke-linecap: square"/>
   </g>
   <g id="line2d_28">
    <path d="M 74.918 30.643273 
L 77.211279 171.717601 
L 79.504559 194.219415 
L 81.797838 211.811684 
L 84.091117 222.708418 
L 86.384396 228.710859 
L 88.677676 237.99115 
L 90.970955 239.289296 
L 93.264234 239.440126 
L 95.557514 244.469353 
L 97.850793 256.688349 
L 100.144072 252.461203 
L 102.437351 246.810037 
L 104.730631 260.334409 
L 107.02391 259.874145 
L 109.317189 256.631057 
L 111.610468 266.499514 
L 113.903748 270.358746 
L 116.197027 271.8408 
L 118.490306 266.961412 
L 120.783586 269.081199 
L 123.076865 268.743293 
L 125.370144 271.829164 
L 127.663423 270.149437 
L 129.956703 276.726774 
L 132.249982 274.109882 
L 134.543261 268.700857 
L 136.836541 284.109461 
L 139.12982 272.166674 
L 141.423099 265.943336 
L 143.716378 271.515719 
L 146.009658 274.707408 
L 148.302937 272.509334 
L 150.596216 275.534545 
L 152.889495 273.478437 
L 155.182775 274.229516 
L 157.476054 282.029387 
L 159.769333 282.09475 
L 162.062613 282.943031 
L 164.355892 285.997904 
L 166.649171 274.617385 
L 168.94245 289.308979 
L 171.23573 284.184134 
L 173.529009 283.29713 
L 175.822288 286.664605 
L 178.115568 295.467301 
L 180.408847 286.36354 
L 182.702126 282.913024 
L 184.995405 285.997904 
L 187.288685 286.252225 
L 189.581964 293.699087 
L 191.875243 290.491701 
L 194.168523 296.252844 
L 196.461802 295.462547 
L 198.755081 291.739933 
L 201.04836 300.688557 
L 203.34164 306.419593 
L 205.634919 295.612832 
L 207.928198 300.75897 
L 210.221477 292.643625 
L 212.514757 302.812405 
L 214.808036 300.376548 
L 217.101315 303.405127 
L 219.394595 301.994725 
L 221.687874 305.323676 
L 223.981153 305.795279 
L 226.274432 306.635489 
L 228.567712 311.951273 
L 230.860991 306.895901 
L 233.15427 304.918674 
L 235.44755 308.400336 
L 237.740829 310.968651 
L 240.034108 305.422711 
L 242.327387 313.23917 
L 244.620667 310.880164 
L 246.913946 309.145077 
L 249.207225 312.17118 
L 251.500505 315.286167 
L 253.793784 313.828178 
L 256.087063 310.712449 
L 258.380342 312.246149 
L 260.673622 307.26525 
L 262.966901 312.443723 
L 265.26018 313.359447 
L 267.553459 314.667348 
L 269.846739 317.608727 
L 272.140018 319.378081 
L 274.433297 320.791107 
L 276.726577 313.9337 
L 279.019856 313.154396 
L 281.313135 323.929763 
L 283.606414 321.959716 
L 285.899694 319.17293 
L 288.192973 317.479289 
L 290.486252 322.676331 
L 292.779532 323.151846 
L 295.072811 316.569359 
L 297.36609 321.725252 
L 299.659369 326.531453 
L 301.952649 319.756294 
L 304.245928 322.349021 
L 306.539207 323.179873 
L 308.832486 323.956255 
L 311.125766 324.805329 
L 313.419045 323.249544 
L 315.712324 323.207454 
L 318.005604 324.282822 
L 320.298883 329.182314 
L 322.592162 322.014284 
L 324.885441 330.700911 
L 327.178721 321.785415 
L 329.472 327.890753 
" clip-path="url(#pbbc6e0a0cd)" style="fill: none; stroke: #7801a8; stroke-width: 1.5; stroke-linecap: square"/>
   </g>
   <g id="line2d_29">
    <path d="M 74.918 30.643273 
L 77.211279 154.030407 
L 79.504559 174.780495 
L 81.797838 191.266894 
L 84.091117 201.858205 
L 86.384396 206.79127 
L 88.677676 214.093839 
L 90.970955 215.773714 
L 93.264234 216.168961 
L 95.557514 223.458011 
L 97.850793 233.911862 
L 100.144072 229.919429 
L 102.437351 222.02191 
L 104.730631 235.489435 
L 107.02391 236.243534 
L 109.317189 232.293636 
L 111.610468 242.311487 
L 113.903748 244.216666 
L 116.197027 245.447469 
L 118.490306 242.261326 
L 120.783586 246.097533 
L 123.076865 243.693169 
L 125.370144 247.0909 
L 127.663423 247.442621 
L 129.956703 250.751369 
L 132.249982 246.246877 
L 134.543261 244.605625 
L 136.836541 257.16317 
L 139.12982 247.642077 
L 141.423099 241.544711 
L 143.716378 246.4292 
L 146.009658 250.064168 
L 148.302937 246.807908 
L 150.596216 251.130078 
L 152.889495 250.325867 
L 155.182775 249.74077 
L 157.476054 256.140935 
L 159.769333 257.215065 
L 162.062613 257.94594 
L 164.355892 260.947087 
L 166.649171 251.114034 
L 168.94245 262.104109 
L 171.23573 259.444929 
L 173.529009 259.629331 
L 175.822288 260.118761 
L 178.115568 269.439111 
L 180.408847 258.897762 
L 182.702126 257.901375 
L 184.995405 261.122477 
L 187.288685 259.784024 
L 189.581964 267.272529 
L 191.875243 263.667767 
L 194.168523 268.388056 
L 196.461802 267.923187 
L 198.755081 264.747245 
L 201.04836 273.952714 
L 203.34164 278.235468 
L 205.634919 269.506454 
L 207.928198 272.362317 
L 210.221477 265.813155 
L 212.514757 274.100276 
L 214.808036 273.3284 
L 217.101315 276.609418 
L 219.394595 275.309489 
L 221.687874 277.56946 
L 223.981153 278.352824 
L 226.274432 280.139013 
L 228.567712 283.946896 
L 230.860991 277.020808 
L 233.15427 276.446407 
L 235.44755 281.963727 
L 237.740829 281.721191 
L 240.034108 275.838829 
L 242.327387 283.42023 
L 244.620667 280.060182 
L 246.913946 277.885381 
L 249.207225 282.922481 
L 251.500505 283.755264 
L 253.793784 285.821028 
L 256.087063 280.798881 
L 258.380342 283.438056 
L 260.673622 279.338714 
L 262.966901 280.629334 
L 265.26018 282.316389 
L 267.553459 284.311839 
L 269.846739 289.011429 
L 272.140018 289.920766 
L 274.433297 291.033321 
L 276.726577 283.852714 
L 279.019856 284.056824 
L 281.313135 292.033274 
L 283.606414 291.955928 
L 285.899694 291.403315 
L 288.192973 285.555021 
L 290.486252 293.884232 
L 292.779532 294.088441 
L 295.072811 286.189932 
L 297.36609 289.778948 
L 299.659369 297.566241 
L 301.952649 287.596818 
L 304.245928 293.345483 
L 306.539207 292.61738 
L 308.832486 293.235951 
L 311.125766 296.393077 
L 313.419045 291.314183 
L 315.712324 291.759047 
L 318.005604 294.084975 
L 320.298883 297.927718 
L 322.592162 295.043829 
L 324.885441 301.237159 
L 327.178721 293.549891 
L 329.472 298.567086 
" clip-path="url(#pbbc6e0a0cd)" style="fill: none; stroke: #6100a7; stroke-width: 1.5; stroke-linecap: square"/>
   </g>
   <g id="line2d_30">
    <path d="M 74.918 30.643273 
L 77.211279 162.827359 
L 79.504559 188.290606 
L 81.797838 216.087406 
L 84.091117 230.343644 
L 86.384396 230.168897 
L 88.677676 237.571738 
L 90.970955 243.192549 
L 93.264234 243.609534 
L 95.557514 256.868938 
L 97.850793 282.705744 
L 100.144072 268.58147 
L 102.437351 256.586095 
L 104.730631 270.043717 
L 107.02391 276.934301 
L 109.317189 261.942187 
L 111.610468 278.70514 
L 113.903748 292.355681 
L 116.197027 285.110949 
L 118.490306 288.109521 
L 120.783586 300.075136 
L 123.076865 286.908627 
L 125.370144 291.530574 
L 127.663423 305.999934 
L 129.956703 305.658661 
L 132.249982 292.271551 
L 134.543261 299.630421 
L 136.836541 310.344733 
L 139.12982 300.18036 
L 141.423099 294.399905 
L 143.716378 297.142472 
L 146.009658 300.631067 
L 148.302937 301.346741 
L 150.596216 307.95364 
L 152.889495 311.082739 
L 155.182775 313.300224 
L 157.476054 319.900142 
L 159.769333 320.39175 
L 162.062613 324.310254 
L 164.355892 326.60979 
L 166.649171 310.349388 
L 168.94245 325.82187 
L 171.23573 327.045393 
L 173.529009 325.174233 
L 175.822288 326.488224 
L 178.115568 343.237461 
L 180.408847 326.541802 
L 182.702126 327.967753 
L 184.995405 328.156067 
L 187.288685 333.745484 
L 189.581964 344.066282 
L 191.875243 348.420787 
L 194.168523 346.289561 
L 196.461802 352.639713 
L 198.755081 350.07219 
L 201.04836 361.900097 
L 203.34164 370.313537 
L 205.634919 361.670188 
L 207.928198 359.667807 
L 210.221477 356.627195 
L 212.514757 362.771553 
L 214.808036 363.793739 
L 217.101315 368.40712 
L 219.394595 367.445692 
L 221.687874 376.162425 
L 223.981153 380.057161 
L 226.274432 371.206137 
L 228.567712 380.777143 
L 230.860991 371.734883 
L 233.15427 378.096176 
L 235.44755 382.687324 
L 237.740829 387.812268 
L 240.034108 374.642738 
L 242.327387 389.976275 
L 244.620667 382.672469 
L 246.913946 383.271034 
L 249.207225 389.108731 
L 251.500505 399.549064 
L 253.793784 394.595647 
L 256.087063 394.965443 
L 258.380342 396.692112 
L 260.673622 389.850105 
L 262.966901 394.759847 
L 265.26018 398.359559 
L 267.553459 400.489497 
L 269.846739 410.308784 
L 272.140018 411.601978 
L 274.433297 412.553107 
L 276.726577 402.371156 
L 279.019856 404.859798 
L 281.313135 404.404832 
L 283.606414 407.293376 
L 285.899694 413.843133 
L 288.192973 404.976064 
L 290.486252 409.525221 
L 292.779532 412.292943 
L 295.072811 405.359725 
L 297.36609 414.101316 
L 299.659369 415.569802 
L 301.952649 408.194889 
L 304.245928 410.750775 
L 306.539207 409.482637 
L 308.832486 416.46973 
L 311.125766 411.364889 
L 313.419045 406.423159 
L 315.712324 402.839986 
L 318.005604 420.773083 
L 320.298883 418.945299 
L 322.592162 408.733736 
L 324.885441 427.508727 
L 327.178721 412.580738 
L 329.472 424.529864 
" clip-path="url(#pbbc6e0a0cd)" style="fill: none; stroke: #4903a0; stroke-width: 1.5; stroke-linecap: square"/>
   </g>
   <g id="patch_3">
    <path d="M 74.918 447.352 
L 74.918 10.8 
" style="fill: none; stroke: #000000; stroke-width: 0.8; stroke-linejoin: miter; stroke-linecap: square"/>
   </g>
   <g id="patch_4">
    <path d="M 329.472 447.352 
L 329.472 10.8 
" style="fill: none; stroke: #000000; stroke-width: 0.8; stroke-linejoin: miter; stroke-linecap: square"/>
   </g>
   <g id="patch_5">
    <path d="M 74.918 447.352 
L 329.472 447.352 
" style="fill: none; stroke: #000000; stroke-width: 0.8; stroke-linejoin: miter; stroke-linecap: square"/>
   </g>
   <g id="patch_6">
    <path d="M 74.918 10.8 
L 329.472 10.8 
" style="fill: none; stroke: #000000; stroke-width: 0.8; stroke-linejoin: miter; stroke-linecap: square"/>
   </g>
  </g>
 </g>
 <defs>
  <clipPath id="pbbc6e0a0cd">
   <rect x="74.918" y="10.8" width="254.554" height="436.552"/>
  </clipPath>
 </defs>
</svg>
